<svg xmlns="http://www.w3.org/2000/svg" width="24" height="24"><g clip-path="url(#a)"><path d="M14.125 5.9c1.142 0 2.067.94 2.067 2.1 0 1.16-.925 2.1-2.067 2.1-1.142 0-2.067-.94-2.067-2.1 0-1.16.925-2.1 2.067-2.1Zm0 9c2.924 0 6.005 1.46 6.005 2.1v1.1H8.12V17c0-.64 3.081-2.1 6.005-2.1Zm0-10.9c-2.175 0-3.938 1.79-3.938 4s1.763 4 3.938 4c2.175 0 3.938-1.79 3.938-4S16.3 4 14.124 4Zm0 9c-2.628 0-7.875 1.34-7.875 4v2c0 .55.443 1 .984 1h13.782c.541 0 .984-.45.984-1v-2c0-2.66-5.247-4-7.875-4ZM5.375 8.444V6.667a.885.885 0 0 0-.875-.89c-.481 0-.875.4-.875.89v1.777h-1.75c-.481 0-.875.4-.875.89 0 .488.394.888.875.888h1.75V12c0 .489.394.889.875.889s.875-.4.875-.889v-1.778h1.75c.481 0 .875-.4.875-.889a.885.885 0 0 0-.875-.889h-1.75Z"/></g><defs><clipPath id="a"><path d="M0 0h24v24H0z"/></clipPath></defs></svg>