<svg xmlns="http://www.w3.org/2000/svg" width="24" height="24"><path d="M1.27 18.75h6.222c.698 0 1.27-.59 1.27-1.313 0-.721-.572-1.312-1.27-1.312H1.27c-.699 0-1.27.59-1.27 1.313 0 .721.571 1.312 1.27 1.312ZM0 4.312c0 .722.571 1.313 1.27 1.313h20.317c.699 0 1.27-.59 1.27-1.313 0-.721-.571-1.312-1.27-1.312H1.27C.57 3 0 3.59 0 4.313Zm1.27 7.875H7.11c.699 0 1.27-.59 1.27-1.312 0-.722-.571-1.313-1.27-1.313H1.27c-.699 0-1.27.591-1.27 1.313s.571 1.313 1.27 1.313Z"/><path fill-rule="evenodd" d="M24 14.25c0 3.728-3.07 6.75-6.857 6.75-3.787 0-6.857-3.022-6.857-6.75s3.07-6.75 6.857-6.75C20.93 7.5 24 10.522 24 14.25Zm-8-3.375c0-.621.512-1.125 1.143-1.125s1.143.504 1.143 1.125v2.25h2.285c.632 0 1.143.504 1.143 1.125s-.511 1.125-1.143 1.125h-2.285v2.25c0 .621-.512 1.125-1.143 1.125A1.134 1.134 0 0 1 16 17.625v-2.25h-2.286a1.134 1.134 0 0 1-1.143-1.125c0-.621.512-1.125 1.143-1.125H16v-2.25Z" clip-rule="evenodd"/></svg>