<svg xmlns="http://www.w3.org/2000/svg" width="24" height="24"><path d="M7.007 18.64c-.86-1.266-.593-2.994.492-4.079l2.119-2.119a.977.977 0 0 0 0-1.373.978.978 0 0 0-1.374 0l-2.047 2.046c-1.888 1.887-2.192 4.953-.492 7.014a5.11 5.11 0 0 0 7.565.375l2.206-2.205a.977.977 0 0 0 0-1.374.978.978 0 0 0-1.374 0l-2.206 2.205a3.18 3.18 0 0 1-4.89-.49Zm4.817-2.474 4.34-4.339a1.025 1.025 0 0 0 0-1.446 1.026 1.026 0 0 0-1.447 0l-4.34 4.339a1.025 1.025 0 0 0 0 1.446 1.026 1.026 0 0 0 1.447 0Zm1.288-9.964-2.047 2.046a.978.978 0 0 0 0 1.374.978.978 0 0 0 1.374 0l2.12-2.119c1.084-1.084 2.813-1.352 4.078-.492a3.179 3.179 0 0 1 .492 4.888l-2.206 2.206a.977.977 0 0 0 0 1.374.978.978 0 0 0 1.374 0l2.206-2.206a5.12 5.12 0 0 0-.368-7.57c-2.062-1.7-5.135-1.388-7.023.499ZM5.403 2.85a.85.85 0 0 1 1.702 0v6.806a.85.85 0 0 1-1.702 0V2.85Z"/><path d="M2.85 7.104a.85.85 0 1 1 0-1.702h6.808a.85.85 0 1 1 0 1.702H2.85Z"/></svg>