<svg xmlns="http://www.w3.org/2000/svg" width="24" height="24"><path d="M16.783 2.87a.87.87 0 1 1 1.739 0v2.608h2.608a.87.87 0 1 1 0 1.74h-2.608v2.608a.87.87 0 1 1-1.74 0V7.217h-2.608a.87.87 0 0 1 0-1.739h2.609V2.87ZM13.04 14.268v6.627c0 .608.498 1.105 1.105 1.105h6.624c.607 0 1.104-.497 1.104-1.105v-6.627c0-.608-.497-1.105-1.104-1.105h-6.624c-.607 0-1.104.497-1.104 1.104ZM3.104 22h6.624c.608 0 1.104-.497 1.104-1.105v-6.627c0-.608-.496-1.105-1.104-1.105H3.104c-.607 0-1.104.497-1.104 1.104v6.628C2 21.503 2.497 22 3.104 22ZM2 3.221v6.628c0 .607.497 1.104 1.104 1.104h6.624c.608 0 1.104-.497 1.104-1.104V3.22c0-.608-.496-1.105-1.104-1.105H3.104C2.497 2.116 2 2.613 2 3.221Z"/></svg>