<svg width="24" height="24" xmlns="http://www.w3.org/2000/svg"><path d="m20.645 4.822-3.068-2.588a.987.987 0 0 0-1.405.131 1.032 1.032 0 0 0 .13 1.426l3.058 2.588a.987.987 0 0 0 1.405-.131 1.021 1.021 0 0 0-.12-1.426ZM3.63 6.38l3.058-2.588c.429-.364.489-1.001.13-1.426a.975.975 0 0 0-1.395-.131L2.355 4.822c-.418.364-.478 1.001-.12 1.426a.975.975 0 0 0 1.395.131Zm7.87-2.578c-4.951 0-8.966 4.075-8.966 9.1C2.534 17.924 6.55 22 11.5 22s8.966-4.075 8.966-9.1c0-5.024-4.015-9.099-8.966-9.099Zm0 16.177c-3.845 0-6.973-3.175-6.973-7.078 0-3.902 3.128-7.077 6.973-7.077 3.845 0 6.973 3.175 6.973 7.077 0 3.903-3.128 7.078-6.973 7.078Zm2.989-8.089h-1.993V9.867c0-.556-.448-1.01-.996-1.01s-.996.454-.996 1.01v2.022H8.51c-.547 0-.996.456-.996 1.011 0 .557.449 1.012.996 1.012h1.993v2.022c0 .556.448 1.01.996 1.01s.996-.454.996-1.01v-2.022h1.993c.547 0 .996-.455.996-1.012 0-.556-.448-1.01-.996-1.01Z"/></svg>