<svg width="24" height="24" xmlns="http://www.w3.org/2000/svg"><path d="M10.221 6.122a7.287 7.287 0 0 1 2.006-.293c3.95 0 7.164 3.174 7.164 7.075a7.03 7.03 0 0 1-.297 1.98l1.597 1.578a8.798 8.798 0 0 0 .747-3.558c0-5.023-4.124-9.096-9.211-9.096-1.28 0-2.497.263-3.613.728l1.607 1.586ZM3.742 2.585a1.022 1.022 0 0 0-1.422 0l-.02.03a.974.974 0 0 0 0 1.405l.695.688-.174.141a.983.983 0 0 0-.133 1.395l.031.03c.358.425.983.475 1.412.121l.318-.252.818.808a8.994 8.994 0 0 0-2.251 5.953C3.016 17.927 7.14 22 12.227 22a9.242 9.242 0 0 0 6.028-2.224l1.443 1.426a1.022 1.022 0 0 0 1.423 0l.03-.03a.992.992 0 0 0 0-1.406L3.743 2.586Zm8.485 17.394c-3.95 0-7.164-3.174-7.164-7.075 0-1.718.624-3.295 1.658-4.518l10.08 9.955a7.173 7.173 0 0 1-4.574 1.638Zm8.096-13.584c.43.354 1.054.293 1.412-.12l.03-.031a.983.983 0 0 0-.122-1.395L18.47 2.231a1.013 1.013 0 0 0-1.412.122l-.031.03a.983.983 0 0 0 .123 1.395l3.173 2.617ZM7.55 3.485a.992.992 0 0 0-.113-1.102l-.03-.03c-.308-.364-.82-.435-1.229-.223L7.55 3.485Z"/></svg>