<svg width="24" height="24" xmlns="http://www.w3.org/2000/svg"><path fill-rule="evenodd" clip-rule="evenodd" d="m16.627 18.3.806 1.79a.68.68 0 0 1-.34.898l-1.736.781a.678.678 0 0 1-.899-.34l-.806-1.789a7.793 7.793 0 0 1-2.835.086l-.695 1.835a.68.68 0 0 1-.876.395l-1.78-.674a.68.68 0 0 1-.395-.876l.695-1.835A7.807 7.807 0 0 1 5.7 16.627l-1.79.806a.678.678 0 0 1-.897-.34l-.782-1.736a.679.679 0 0 1 .34-.899l1.79-.806a7.809 7.809 0 0 1-.087-2.835l-1.835-.695a.68.68 0 0 1-.395-.876l.675-1.78a.68.68 0 0 1 .876-.395l1.835.695A7.81 7.81 0 0 1 7.373 5.7l-.806-1.79a.68.68 0 0 1 .34-.897l1.736-.782a.68.68 0 0 1 .899.34l.806 1.789a7.788 7.788 0 0 1 2.835-.086l.696-1.835a.679.679 0 0 1 .875-.395l1.78.675a.68.68 0 0 1 .395.875l-.695 1.836A7.81 7.81 0 0 1 18.3 7.373l1.789-.806a.68.68 0 0 1 .898.34l.782 1.736a.679.679 0 0 1-.34.899l-1.79.806c.202.931.232 1.894.087 2.835l1.835.696a.68.68 0 0 1 .395.875l-.674 1.78a.68.68 0 0 1-.876.395l-1.835-.695a7.81 7.81 0 0 1-1.944 2.066Zm-4.628-1.692a4.631 4.631 0 0 0 4.308-2.976 4.576 4.576 0 0 0-.107-3.524 4.576 4.576 0 0 0-2.568-2.415c-.526-.2-1.075-.3-1.631-.3a4.631 4.631 0 0 0-4.308 2.975 4.576 4.576 0 0 0 .108 3.524 4.575 4.575 0 0 0 2.567 2.415c.526.2 1.075.3 1.631.3Z"/></svg>