<svg xmlns="http://www.w3.org/2000/svg" width="24" height="24"><path d="M15.636 7.226v9.617c0 1.9-1.39 3.59-3.281 3.772a3.63 3.63 0 0 1-3.991-3.618V5.762c0-1.19.854-2.272 2.036-2.39a2.273 2.273 0 0 1 2.51 2.263v9.544c0 .5-.41.91-.91.91s-.91-.41-.91-.91V7.226a.687.687 0 0 0-.68-.682.687.687 0 0 0-.683.682v7.826c0 1.19.855 2.272 2.037 2.39a2.273 2.273 0 0 0 2.509-2.263V5.79c0-1.9-1.391-3.59-3.282-3.772A3.635 3.635 0 0 0 7 5.635v11.153c0 2.609 1.91 4.945 4.51 5.19a5.005 5.005 0 0 0 5.49-4.98V7.225a.687.687 0 0 0-.682-.682.687.687 0 0 0-.682.682Z"/></svg>