<svg width="24" height="24" xmlns="http://www.w3.org/2000/svg"><path d="M16.774 15.636H7.157c-1.9 0-3.59-1.39-3.772-3.281a3.635 3.635 0 0 1 3.618-3.991h11.235c1.19 0 2.272.854 2.39 2.036a2.273 2.273 0 0 1-2.263 2.51H8.82c-.5 0-.91-.41-.91-.91s.41-.91.91-.91h7.953c.373 0 .682-.308.682-.68a.687.687 0 0 0-.682-.683H8.948c-1.19 0-2.272.855-2.39 2.037a2.273 2.273 0 0 0 2.263 2.509h9.39c1.9 0 3.59-1.391 3.772-3.282A3.63 3.63 0 0 0 18.365 7H7.212c-2.609 0-4.945 1.91-5.19 4.51A5.004 5.004 0 0 0 7.002 17h9.772c.373 0 .682-.31.682-.682a.687.687 0 0 0-.682-.682Z"/></svg>