<svg xmlns="http://www.w3.org/2000/svg" width="24" height="24"><path d="M9.43 22c-1.24 0-2.289-.403-3.145-1.208C5.428 19.986 5 19 5 17.833c0-1.166.428-2.152 1.285-2.958.856-.806 1.905-1.208 3.145-1.208.552 0 1.049.074 1.492.222.443.148.832.352 1.167.611V3.667c0-.463.172-.857.516-1.18A1.765 1.765 0 0 1 13.861 2h3.16c.551 0 1.02.18 1.403.542.384.36.576.8.576 1.32 0 .518-.192.962-.576 1.332-.384.37-.852.556-1.403.556h-3.16v12.083c0 1.167-.429 2.153-1.285 2.959C11.719 21.597 10.671 22 9.43 22Z"/></svg>