<svg width="24" height="24" xmlns="http://www.w3.org/2000/svg"><path d="M5.39 4.429h3.385V3.31c0-.273.304-.416.479-.217l1.566 1.733a.343.343 0 0 1 0 .442L9.254 7c-.175.199-.479.062-.479-.217V5.67H5.39c-.31 0-.564-.28-.564-.62 0-.343.254-.622.564-.622ZM2.652 10.73 1.08 8.995a.335.335 0 0 1 0-.435l1.572-1.734c.174-.199.479-.062.479.218v1.112h3.385c.31 0 .563.28.563.621 0 .342-.253.622-.563.622H3.131v1.112c0 .28-.304.416-.48.217ZM19.786 3.585a5.673 5.673 0 0 0-6.553 1.107c-1.664 1.686-2.087 4.148-1.277 6.235L4.98 18.001a2.353 2.353 0 0 0 0 3.31c.899.919 2.36.919 3.268 0l7.011-7.101a5.679 5.679 0 0 0 6.069-1.32c1.77-1.793 2.131-4.46 1.1-6.628L19.232 9.5a.854.854 0 0 1-1.242 0l-1.4-1.419a.896.896 0 0 1 0-1.257l3.197-3.239Z"/></svg>