<svg xmlns="http://www.w3.org/2000/svg" width="24" height="24"><path d="M7.325 7.6h-1.65a.271.271 0 0 0-.275.275v8.25c0 .172.103.275.275.275h1.65a.271.271 0 0 0 .275-.275v-8.25a.296.296 0 0 0-.275-.275Zm-1.375 11H3.2v-2.75c0-.275-.275-.55-.55-.55h-1.1c-.31 0-.55.275-.55.55v4.4c0 .31.24.55.55.55h4.4c.275 0 .55-.24.55-.55v-1.1c0-.275-.275-.55-.55-.55Zm3.575-11h-.55a.271.271 0 0 0-.275.275v8.25c0 .172.103.275.275.275h.55a.271.271 0 0 0 .275-.275v-8.25a.296.296 0 0 0-.275-.275ZM1.55 8.7h1.1c.275 0 .55-.24.55-.55V5.4h2.75c.275 0 .55-.24.55-.55v-1.1c0-.275-.275-.55-.55-.55h-4.4c-.31 0-.55.275-.55.55v4.4c0 .31.24.55.55.55Zm13.475-1.1h-1.65a.271.271 0 0 0-.275.275v8.25c0 .172.103.275.275.275h1.65a.271.271 0 0 0 .275-.275v-8.25a.296.296 0 0 0-.275-.275Zm-3.3 0h-.55a.271.271 0 0 0-.275.275v8.25c0 .172.103.275.275.275h.55a.271.271 0 0 0 .275-.275v-8.25a.296.296 0 0 0-.275-.275ZM22.45 3.2h-4.4c-.31 0-.55.275-.55.55v1.1c0 .31.24.55.55.55h2.75v2.75c0 .31.24.55.55.55h1.1c.275 0 .55-.24.55-.55v-4.4c0-.275-.275-.55-.55-.55Zm0 12.1h-1.1c-.31 0-.55.275-.55.55v2.75h-2.75c-.31 0-.55.275-.55.55v1.1c0 .31.24.55.55.55h4.4c.275 0 .55-.24.55-.55v-4.4c0-.275-.275-.55-.55-.55Zm-3.85.825v-8.25a.296.296 0 0 0-.275-.275h-1.65a.271.271 0 0 0-.275.275v8.25c0 .172.103.275.275.275h1.65a.271.271 0 0 0 .275-.275Z"/></svg>