<svg width="24" height="24" xmlns="http://www.w3.org/2000/svg"><path d="M2.124 8.23a1.11 1.11 0 0 1-.8-.31A1.017 1.017 0 0 1 1 7.155c0-.305.108-.561.324-.768.215-.206.481-.31.8-.31h3.372c.318 0 .585.104.8.31.216.207.323.463.323.768s-.107.56-.322.767c-.216.206-.483.31-.801.31H2.124Zm0 5.385a1.11 1.11 0 0 1-.8-.31A1.017 1.017 0 0 1 1 12.54c0-.306.108-.562.324-.768.215-.206.481-.31.8-.31h3.372c.318 0 .585.104.8.31.216.206.323.462.323.768 0 .305-.107.56-.322.766-.216.207-.483.31-.801.31H2.124Zm18.994 4.631-3.54-3.392c-.45.305-.942.534-1.475.686a5.843 5.843 0 0 1-1.616.23c-1.555 0-2.88-.526-3.976-1.576s-1.644-2.32-1.644-3.81c0-1.49.548-2.76 1.644-3.81C11.607 5.524 12.931 5 14.487 5c1.554 0 2.88.525 3.976 1.574 1.095 1.05 1.643 2.32 1.643 3.81 0 .521-.08 1.037-.238 1.55-.16.51-.399.981-.717 1.412l3.54 3.392c.206.198.309.45.309.754a.999.999 0 0 1-.31.754c-.205.198-.467.296-.786.296-.318 0-.58-.098-.787-.296Zm-6.631-4.63c.936 0 1.732-.315 2.388-.943.655-.628.983-1.39.983-2.288 0-.898-.328-1.66-.983-2.289-.656-.628-1.452-.942-2.388-.942-.937 0-1.733.314-2.389.942-.655.628-.983 1.391-.983 2.289 0 .897.328 1.66.983 2.288.656.628 1.452.942 2.389.942ZM2.124 19a1.11 1.11 0 0 1-.8-.31A1.017 1.017 0 0 1 1 17.923c0-.305.108-.56.324-.767a1.11 1.11 0 0 1 .8-.31h8.99c.32 0 .586.104.802.31.215.206.323.462.323.767s-.108.56-.323.767c-.216.207-.483.31-.801.31H2.124Z"/></svg>