<svg width="24" height="24" xmlns="http://www.w3.org/2000/svg"><path d="m18.462 8.35-2.711 2.79c-.311.32-.098.86.34.86h1.739c0 3.31-2.614 6-5.83 6-.768 0-1.516-.15-2.186-.44-.35-.15-.748-.04-1.01.23-.496.51-.321 1.37.33 1.64.884.37 1.855.57 2.866.57 4.295 0 7.773-3.58 7.773-8h1.74c.437 0 .65-.54.34-.85l-2.711-2.79a.469.469 0 0 0-.68-.01ZM6.17 12c0-3.31 2.614-6 5.83-6 .768 0 1.516.15 2.186.44.35.15.748.04 1.01-.23.496-.51.322-1.37-.33-1.64A7.418 7.418 0 0 0 12 4c-4.295 0-7.773 3.58-7.773 8h-1.74c-.437 0-.65.54-.34.85l2.711 2.79c.195.2.496.2.69 0l2.711-2.79c.301-.31.088-.85-.35-.85H6.17Z"/></svg>