<svg width="24" height="24" xmlns="http://www.w3.org/2000/svg"><path d="M19.778 2H4.222C3 2 2 3 2 4.222v15.556C2 21 3 22 4.222 22h15.556C21 22 22 21 22 19.778V4.222C22 3 21 2 19.778 2Zm-6.045 3.922a.838.838 0 0 1 1.178 0l.978.978.978-.978a.838.838 0 0 1 1.177 0 .838.838 0 0 1 0 1.178l-.977.978.977.978a.838.838 0 0 1 0 1.177.838.838 0 0 1-1.177 0l-.978-.966-.978.977a.838.838 0 0 1-1.178 0 .838.838 0 0 1 0-1.177l.978-.978-.978-.978a.832.832 0 0 1 0-1.189ZM6.444 7.244h3.89a.84.84 0 0 1 .833.834.84.84 0 0 1-.834.833H6.444a.84.84 0 0 1-.833-.833.84.84 0 0 1 .833-.834Zm4.167 9.2H9.222v1.39a.84.84 0 0 1-.833.833.84.84 0 0 1-.833-.834v-1.389h-1.39a.84.84 0 0 1-.833-.833.84.84 0 0 1 .834-.833h1.389v-1.39a.84.84 0 0 1 .833-.832.84.84 0 0 1 .833.833v1.389h1.39a.84.84 0 0 1 .832.833.84.84 0 0 1-.833.833Zm7.222 1.39h-3.889a.84.84 0 0 1-.833-.834.84.84 0 0 1 .833-.833h3.89a.84.84 0 0 1 .833.833.84.84 0 0 1-.834.833Zm0-2.778h-3.889a.84.84 0 0 1-.833-.834.84.84 0 0 1 .833-.833h3.89a.84.84 0 0 1 .833.833.84.84 0 0 1-.834.834Z"/></svg>