<svg width="24" height="24" xmlns="http://www.w3.org/2000/svg"><path d="m8.152 13.746.004.005.005.004c.185.164.405.253.652.264a.884.884 0 0 0 .68-.273L12 11.239l2.532 2.531a.9.9 0 0 0 .658.261.94.94 0 0 0 .683-.285.925.925 0 0 0 .285-.67c0-.259-.1-.485-.285-.67L12.67 9.202A.926.926 0 0 0 12 8.918c-.258 0-.485.1-.67.285l-3.203 3.202a.9.9 0 0 0-.26.658.94.94 0 0 0 .285.683Z"/><path fill-rule="evenodd" clip-rule="evenodd" d="M15.948 2.763C14.729 2.253 13.412 2 12 2c-1.396 0-2.705.254-3.923.763A9.765 9.765 0 0 0 4.9 4.876C4 5.777 3.29 6.836 2.775 8.051 2.258 9.27 2 10.587 2 12c0 1.397.258 2.706.775 3.925a9.929 9.929 0 0 0 2.126 3.174c.9.901 1.96 1.61 3.174 2.125 1.22.518 2.528.776 3.925.776 1.413 0 2.73-.258 3.95-.776a9.929 9.929 0 0 0 3.174-2.125 9.766 9.766 0 0 0 2.113-3.176c.51-1.218.763-2.527.763-3.923 0-1.412-.253-2.73-.763-3.948a9.765 9.765 0 0 0-2.113-3.176 9.765 9.765 0 0 0-3.176-2.113ZM6.229 6.229C7.774 4.684 9.693 3.911 12 3.911s4.226.773 5.77 2.318C19.317 7.774 20.09 9.693 20.09 12s-.773 4.226-2.318 5.77C16.226 19.317 14.307 20.09 12 20.09s-4.226-.773-5.77-2.318C4.683 16.226 3.91 14.307 3.91 12s.773-4.226 2.318-5.77Z"/></svg>