<svg width="24" height="24" xmlns="http://www.w3.org/2000/svg"><path d="m15.848 10.254-.004-.005-.005-.004a1.023 1.023 0 0 0-.652-.264.884.884 0 0 0-.68.273L12 12.761 9.468 10.23a.9.9 0 0 0-.658-.261.94.94 0 0 0-.683.285.925.925 0 0 0-.285.67c0 .259.1.485.285.67l3.202 3.203a.925.925 0 0 0 .671.285c.258 0 .485-.1.67-.285l3.203-3.202a.9.9 0 0 0 .26-.658.94.94 0 0 0-.285-.683Z"/><path fill-rule="evenodd" clip-rule="evenodd" d="M8.052 21.237c1.219.51 2.536.763 3.948.763 1.396 0 2.705-.254 3.923-.763a9.766 9.766 0 0 0 3.176-2.113c.901-.901 1.61-1.96 2.125-3.175C21.742 14.73 22 13.413 22 12c0-1.397-.258-2.706-.776-3.925A9.93 9.93 0 0 0 19.1 4.901a9.929 9.929 0 0 0-3.174-2.126C14.705 2.258 13.397 2 12 2c-1.413 0-2.73.258-3.95.775a9.928 9.928 0 0 0-3.174 2.126 9.765 9.765 0 0 0-2.113 3.176C2.253 9.295 2 10.604 2 12c0 1.412.254 2.73.763 3.948a9.765 9.765 0 0 0 2.113 3.176 9.765 9.765 0 0 0 3.176 2.113Zm9.719-3.466c-1.545 1.544-3.464 2.318-5.771 2.318s-4.226-.773-5.77-2.318C4.683 16.226 3.91 14.307 3.91 12s.773-4.226 2.318-5.77C7.774 4.683 9.693 3.91 12 3.91s4.226.773 5.77 2.318C19.317 7.774 20.09 9.693 20.09 12s-.773 4.226-2.318 5.77Z"/></svg>