<svg width="24" height="24" xmlns="http://www.w3.org/2000/svg"><path d="M4.286 17.143h2.571v2.571A1.29 1.29 0 0 0 8.143 21a1.29 1.29 0 0 0 1.286-1.286v-3.857a1.29 1.29 0 0 0-1.286-1.286H4.286A1.29 1.29 0 0 0 3 15.857a1.29 1.29 0 0 0 1.286 1.286ZM6.857 6.857H4.286A1.29 1.29 0 0 0 3 8.143a1.29 1.29 0 0 0 1.286 1.286h3.857a1.29 1.29 0 0 0 1.286-1.286V4.286A1.29 1.29 0 0 0 8.143 3a1.29 1.29 0 0 0-1.286 1.286v2.571Zm9 14.143a1.29 1.29 0 0 0 1.286-1.286v-2.571h2.571A1.29 1.29 0 0 0 21 15.857a1.29 1.29 0 0 0-1.286-1.286h-3.857a1.29 1.29 0 0 0-1.286 1.286v3.857A1.29 1.29 0 0 0 15.857 21Zm1.286-14.143V4.286A1.29 1.29 0 0 0 15.857 3a1.29 1.29 0 0 0-1.286 1.286v3.857a1.29 1.29 0 0 0 1.286 1.286h3.857A1.29 1.29 0 0 0 21 8.143a1.29 1.29 0 0 0-1.286-1.286h-2.571Z"/></svg>