<svg width="24" height="24" xmlns="http://www.w3.org/2000/svg"><path d="M5 3C3.343 3 2 4.422 2 6.176v11.647C2 19.578 3.343 21 5 21h2c1.657 0 3-1.422 3-3.177v-.799c0-.585-.448-1.059-1-1.059s-1 .474-1 1.059v.8c0 .584-.448 1.058-1 1.058H5c-.552 0-1-.474-1-1.059V6.176c0-.584.448-1.058 1-1.058h4c.552 0 1-.474 1-1.06C10 3.475 9.552 3 9 3H5ZM19 3c1.657 0 3 1.422 3 3.176v11.647C22 19.578 20.657 21 19 21h-2c-1.657 0-3-1.422-3-3.177v-.799c0-.585.448-1.059 1-1.059s1 .474 1 1.059v.8c0 .584.448 1.058 1 1.058h2c.552 0 1-.474 1-1.059V6.176c0-.584-.448-1.058-1-1.058h-4c-.552 0-1-.474-1-1.06C14 3.475 14.448 3 15 3h4Z"/><path fill-rule="evenodd" clip-rule="evenodd" d="M13 14.514c1.725-.47 3-2.129 3-4.102 0-2.34-1.791-4.236-4-4.236-2.21 0-4 1.897-4 4.236 0 1.973 1.275 3.632 3 4.102v3.31c0 .584.448 1.058 1 1.058s1-.474 1-1.058v-3.31Zm-1-1.985c1.104 0 2-.948 2-2.117 0-1.17-.896-2.118-2-2.118-1.105 0-2 .948-2 2.118s.895 2.117 2 2.117Z"/></svg>