<svg width="24" height="24" xmlns="http://www.w3.org/2000/svg"><path fill-rule="evenodd" clip-rule="evenodd" d="M8.333 5.158V4.58a.597.597 0 0 0-.147-.416A.485.485 0 0 0 7.81 4H6.238c-.786 0-1.462.314-2.03.941-.567.628-.85 1.376-.85 2.245v1.737H1.523a.485.485 0 0 0-.377.163.597.597 0 0 0-.147.416v.58c0 .168.05.307.147.416a.485.485 0 0 0 .377.163h1.833v5.212c0 .41-.125.754-.376 1.032a1.208 1.208 0 0 1-.933.416h-.524a.485.485 0 0 0-.377.163A.597.597 0 0 0 1 17.9v.58c0 .169.05.307.147.416a.485.485 0 0 0 .377.163h.524c.785 0 1.462-.314 2.03-.941.567-.628.85-1.376.85-2.245v-5.212h1.834a.485.485 0 0 0 .376-.163.597.597 0 0 0 .148-.417v-.579a.597.597 0 0 0-.148-.416.485.485 0 0 0-.376-.163H4.929V7.186c0-.41.125-.755.376-1.032.251-.278.562-.416.933-.416H7.81a.485.485 0 0 0 .376-.163.597.597 0 0 0 .147-.417Zm3.664 1.576c-.012-.146-.092-.269-.239-.367L11.316 6a.635.635 0 0 0-.46-.11.554.554 0 0 0-.387.257 11.65 11.65 0 0 0-1.583 3.232 11.852 11.852 0 0 0-.553 3.562c0 1.2.184 2.387.553 3.563a11.65 11.65 0 0 0 1.583 3.232.554.554 0 0 0 .387.257.636.636 0 0 0 .46-.11l.442-.368c.147-.098.227-.22.24-.367a.819.819 0 0 0-.093-.44 9.634 9.634 0 0 1-1.344-2.737 10.192 10.192 0 0 1 0-6.06 9.635 9.635 0 0 1 1.344-2.736.819.819 0 0 0 .092-.44Zm8.867-.587a11.65 11.65 0 0 1 1.584 3.232A11.85 11.85 0 0 1 23 12.94c0 1.2-.184 2.387-.552 3.563a11.65 11.65 0 0 1-1.584 3.232.554.554 0 0 1-.387.257.636.636 0 0 1-.46-.11l-.442-.368c-.147-.098-.227-.22-.239-.367a.819.819 0 0 1 .092-.44 9.634 9.634 0 0 0 1.344-2.737 10.192 10.192 0 0 0 0-6.06 9.635 9.635 0 0 0-1.344-2.736.819.819 0 0 1-.092-.44.445.445 0 0 1 .142-.29l.54-.445a.635.635 0 0 1 .46-.11c.16.024.288.11.386.257Zm-2.62 4.065-.451-.466a.434.434 0 0 0-.287-.099.537.537 0 0 0-.396.177l-1.443 1.482-1.444-1.482a.537.537 0 0 0-.395-.177.436.436 0 0 0-.361.177l-.454.464a.46.46 0 0 0-.096.294c0 .153.057.289.171.406l1.444 1.483-1.444 1.482a.566.566 0 0 0-.171.406c0 .153.057.276.171.37l.453.466c.08.066.175.1.287.1.149 0 .28-.06.395-.177l1.444-1.483 1.443 1.483a.537.537 0 0 0 .396.176c.149 0 .269-.059.36-.176l.454-.465a.46.46 0 0 0 .097-.294.565.565 0 0 0-.172-.406L16.8 12.47l1.444-1.483a.565.565 0 0 0 .172-.406.456.456 0 0 0-.172-.37Z"/></svg>