<svg width="24" height="24" xmlns="http://www.w3.org/2000/svg"><path d="M14.632 2H4.789C3.805 2 3 2.818 3 3.818v11.818c0 .5.403.91.895.91s.894-.41.894-.91V4.727c0-.5.403-.909.895-.909h8.948c.492 0 .894-.409.894-.909S15.124 2 14.632 2Zm3.579 3.636H8.367c-.984 0-1.79.819-1.79 1.819v12.727c0 1 .806 1.818 1.79 1.818h9.842c.985 0 1.79-.818 1.79-1.818V7.455c0-1-.805-1.819-1.79-1.819Zm-.895 14.546H9.263a.905.905 0 0 1-.895-.91V8.365c0-.5.403-.91.895-.91h8.053c.492 0 .895.41.895.91v10.909c0 .5-.403.909-.895.909Z"/></svg>