<svg width="24" height="24" xmlns="http://www.w3.org/2000/svg"><g clip-path="url(#a)"><path d="M11.17 2.709c.157-.945 1.503-.945 1.66 0l.415 2.484a.84.84 0 0 0 1.454.43l1.68-1.863c.638-.709 1.77.026 1.397.907l-.982 2.316c-.276.652.314 1.339.993 1.156l2.41-.651c.918-.248 1.477.987.69 1.525l-2.066 1.412c-.582.398-.453 1.298.216 1.514l2.377.768c.904.292.713 1.637-.237 1.66l-2.494.06c-.703.018-1.077.845-.63 1.392l1.588 1.943c.605.74-.276 1.766-1.088 1.267l-2.13-1.31c-.601-.37-1.359.122-1.276.827l.296 2.5c.112.953-1.179 1.335-1.594.473l-1.091-2.265a.839.839 0 0 0-1.516 0l-1.09 2.265c-.416.862-1.707.48-1.595-.472l.296-2.501c.083-.705-.675-1.196-1.275-.827l-2.131 1.31c-.811.499-1.693-.528-1.088-1.267l1.588-1.943c.447-.547.073-1.374-.63-1.391l-2.494-.061c-.95-.023-1.141-1.368-.237-1.66l2.377-.768c.67-.216.797-1.116.216-1.514L3.112 9.013c-.786-.538-.227-1.773.69-1.525l2.411.65c.68.184 1.269-.503.992-1.155l-.981-2.316c-.374-.881.759-1.616 1.398-.907L9.3 5.624a.84.84 0 0 0 1.454-.431l.414-2.484Z"/></g><defs><clipPath id="a"><path d="M0 0h24v24H0z"/></clipPath></defs></svg>