<svg width="24" height="24" xmlns="http://www.w3.org/2000/svg"><path d="M20.8 6.125H12l-1.551-1.498A2.247 2.247 0 0 0 8.887 4H3.2c-1.221 0-2.189.946-2.189 2.125L1 18.875C1 20.055 1.979 21 3.2 21h17.6c1.21 0 2.2-.956 2.2-2.125V8.25c0-1.169-.99-2.125-2.2-2.125Zm-2.2 8.5h-2.2v2.125c0 .584-.495 1.063-1.1 1.063-.605 0-1.1-.479-1.1-1.063v-2.125H12c-.605 0-1.1-.478-1.1-1.063 0-.584.495-1.062 1.1-1.062h2.2v-2.125c0-.584.495-1.063 1.1-1.063.605 0 1.1.479 1.1 1.063V12.5h2.2c.605 0 1.1.478 1.1 1.063 0 .584-.495 1.062-1.1 1.062Z"/></svg>