<svg width="24" height="24" xmlns="http://www.w3.org/2000/svg"><path d="M12 10.889c-2.981 0-5.394-.454-7.236-1.361C2.92 8.62 2 7.593 2 6.444c0-1.166.921-2.199 2.764-3.097C6.606 2.45 9.019 2 12 2c2.982 0 5.393.45 7.236 1.347C21.08 4.245 22 5.277 22 6.444c0 1.149-.921 2.176-2.764 3.084-1.843.907-4.255 1.36-7.236 1.36Zm0 5.555c-2.704 0-5.046-.407-7.028-1.222C2.991 14.407 2 13.426 2 12.278V9.5c0 .722.347 1.347 1.042 1.875.694.528 1.555.963 2.583 1.306 1.028.342 2.12.592 3.278.75 1.157.157 2.19.236 3.097.236.926 0 1.963-.079 3.111-.236a18.87 18.87 0 0 0 3.264-.737c1.028-.333 1.889-.763 2.583-1.291C21.653 10.875 22 10.24 22 9.5v2.778c0 1.148-.99 2.13-2.972 2.944-1.982.815-4.324 1.222-7.028 1.222ZM12 22c-2.704 0-5.046-.407-7.028-1.222C2.991 19.963 2 18.982 2 17.833v-2.777c0 .722.347 1.347 1.042 1.875.694.527 1.555.962 2.583 1.305 1.028.343 2.12.593 3.278.75 1.157.157 2.19.236 3.097.236.926 0 1.963-.079 3.111-.236a18.87 18.87 0 0 0 3.264-.736c1.028-.333 1.889-.764 2.583-1.292.695-.527 1.042-1.162 1.042-1.902v2.777c0 1.149-.99 2.13-2.972 2.945S14.704 22 12 22Z"/></svg>