<svg width="24" height="24" xmlns="http://www.w3.org/2000/svg"><path d="M13.905 2.93v.93H6.579v-.93A.926.926 0 0 0 5.663 2a.926.926 0 0 0-.916.93v.93h-.915c-1.017 0-1.823.836-1.823 1.859L2 18.734c0 1.023.815 1.86 1.832 1.86h4.613a8.125 8.125 0 0 1-.712-1.86H4.747a.926.926 0 0 1-.915-.93V8.509h14.651v-2.79c0-1.022-.824-1.859-1.831-1.859h-.916v-.93A.926.926 0 0 0 14.82 2a.926.926 0 0 0-.915.93ZM14.912 14.19c0-.36.292-.65.655-.65h.036c.364 0 .655.29.655.65v2.608l2.23 1.319c.32.182.418.59.229.897a.652.652 0 0 1-.892.22h-.002l-2.507-1.498a.814.814 0 0 1-.404-.706v-2.84Z"/><path fill-rule="evenodd" clip-rule="evenodd" d="M15.73 10.531c-3.458 0-6.257 2.793-6.257 6.235 0 3.44 2.8 6.234 6.257 6.234 3.464 0 6.27-2.793 6.27-6.234 0-3.442-2.806-6.235-6.27-6.235Zm-4.61 6.235c0-2.538 2.066-4.594 4.616-4.594s4.616 2.055 4.616 4.594c0 2.538-2.066 4.593-4.616 4.593s-4.615-2.055-4.615-4.593Z"/></svg>