<svg width="24" height="24" xmlns="http://www.w3.org/2000/svg"><g clip-path="url(#a)"><path fill-rule="evenodd" clip-rule="evenodd" d="M7.429 22c-1.258 0-2.286-1-2.286-2.222V8.667c0-1.223 1.028-2.223 2.286-2.223h9.142c1.258 0 2.286 1 2.286 2.223v11.11C18.857 21 17.83 22 16.571 22H7.43ZM16 3.111h2.857c.629 0 1.143.5 1.143 1.111s-.514 1.111-1.143 1.111H5.143c-.629 0-1.143-.5-1.143-1.11 0-.612.514-1.112 1.143-1.112H8l.811-.789c.206-.2.503-.322.8-.322h4.778c.297 0 .594.122.8.322l.811.79ZM7.459 14.308l2.971 2.817c.179.17.468.17.647 0l5.257-4.984a.418.418 0 0 0 0-.613l-.646-.613a.475.475 0 0 0-.647 0l-4.287 4.065-2.002-1.898a.475.475 0 0 0-.647 0l-.646.613a.418.418 0 0 0 0 .613Z"/></g><defs><clipPath id="a"><path d="M0 0h24v24H0z"/></clipPath></defs></svg>