<svg width="24" height="24" xmlns="http://www.w3.org/2000/svg"><path d="M5.143 19.778C5.143 21 6.17 22 7.429 22h9.142c1.258 0 2.286-1 2.286-2.222V8.667c0-1.223-1.028-2.223-2.286-2.223H7.43c-1.258 0-2.286 1-2.286 2.223v11.11Zm3.623-8.7a1.161 1.161 0 0 1 1.611 0L12 12.656l1.623-1.578a1.161 1.161 0 0 1 1.611 0 1.085 1.085 0 0 1 0 1.566l-1.623 1.578 1.623 1.578a1.085 1.085 0 0 1 0 1.567 1.161 1.161 0 0 1-1.611 0L12 15.789l-1.623 1.578a1.161 1.161 0 0 1-1.611 0 1.085 1.085 0 0 1 0-1.567l1.623-1.578-1.623-1.578a1.085 1.085 0 0 1 0-1.566ZM16 3.11l-.811-.789a1.17 1.17 0 0 0-.8-.322H9.61a1.17 1.17 0 0 0-.8.322L8 3.112H5.143c-.629 0-1.143.5-1.143 1.11 0 .611.514 1.111 1.143 1.111h13.714c.629 0 1.143-.5 1.143-1.11 0-.612-.514-1.112-1.143-1.112H16Z"/></svg>