<svg width="24" height="24" xmlns="http://www.w3.org/2000/svg"><path fill-rule="evenodd" clip-rule="evenodd" d="M7.429 22c-1.258 0-2.286-1-2.286-2.222V8.667c0-1.223 1.028-2.223 2.286-2.223h9.142c1.258 0 2.286 1 2.286 2.223v11.11C18.857 21 17.83 22 16.571 22H7.43ZM16 3.111h2.857c.629 0 1.143.5 1.143 1.111s-.514 1.111-1.143 1.111H5.143c-.629 0-1.143-.5-1.143-1.11 0-.612.514-1.112 1.143-1.112H8l.811-.789c.206-.2.503-.322.8-.322h4.778c.297 0 .594.122.8.322l.811.79Zm-7.013 8.677a1 1 0 0 1 1-1h.493a1 1 0 0 1 1 1v5.273a1 1 0 0 1-1 1h-.493a1 1 0 0 1-1-1v-5.273Zm3.324 0a1 1 0 0 1 1-1h.494a1 1 0 0 1 1 1v5.273a1 1 0 0 1-1 1h-.494a1 1 0 0 1-1-1v-5.273Z"/></svg>