<svg xmlns="http://www.w3.org/2000/svg" width="24" height="24"><path fill-rule="evenodd" d="M16.332 11.392c.32 0 .636.023.944.067v-7.81c0-.91-.678-1.649-1.514-1.649H4.514C3.678 2 3 2.738 3 3.648v15.488c0 .91.678 1.648 1.514 1.648h5.841a6.585 6.585 0 0 1-.55-3.886H6.413c-.26 0-.473-.291-.473-.648 0-.356.213-.648.473-.648h3.747a6.565 6.565 0 0 1 1.177-1.943H6.59a.652.652 0 0 1-.652-.648c0-.356.293-.647.652-.647h6.28a6.611 6.611 0 0 1 3.46-.972Zm-3.226-4.21H6.591a.652.652 0 0 1-.652-.648c0-.356.293-.648.652-.648h6.515c.359 0 .652.292.652.648a.651.651 0 0 1-.652.648ZM6.591 10.42h6.515a.652.652 0 0 0 .652-.648.651.651 0 0 0-.652-.648H6.591a.652.652 0 0 0-.652.648c0 .356.293.648.652.648Z" clip-rule="evenodd"/><path fill-rule="evenodd" d="M22 17.553a.27.27 0 0 1-.044.15l-2.363 4.148a.305.305 0 0 1-.26.149h-4.726a.298.298 0 0 1-.26-.149l-2.363-4.149a.27.27 0 0 1 0-.293l2.363-4.153a.303.303 0 0 1 .26-.145h4.726a.299.299 0 0 1 .26.145l2.363 4.149a.27.27 0 0 1 .044.148Zm-3.189-1.874a2.603 2.603 0 0 0-1.841-.765 2.638 2.638 0 0 0-2.623 2.622c.002.705.28 1.381.77 1.88.492.498 1.158.78 1.853.782a2.613 2.613 0 0 0 1.852-.782 2.69 2.69 0 0 0 .77-1.88 2.68 2.68 0 0 0-.78-1.857Z" clip-rule="evenodd"/></svg>