<svg xmlns="http://www.w3.org/2000/svg" width="24" height="24"><g clip-path="url(#a)"><path d="M17.246 9.059h-1.817V3.176c0-.647-.515-1.176-1.143-1.176H9.714c-.628 0-1.143.53-1.143 1.176V9.06H6.754c-1.017 0-1.531 1.27-.811 2.012l5.246 5.4a1.115 1.115 0 0 0 1.611 0l5.246-5.4c.72-.742.217-2.012-.8-2.012ZM4 20.823C4 21.471 4.514 22 5.143 22h13.714c.629 0 1.143-.53 1.143-1.177 0-.646-.514-1.176-1.143-1.176H5.143c-.629 0-1.143.53-1.143 1.177Z"/></g><defs><clipPath id="a"><path d="M0 0h24v24H0z"/></clipPath></defs></svg>