<svg xmlns="http://www.w3.org/2000/svg" width="24" height="24"><path d="M3.75 10.6C2.237 10.6 1 9.34 1 7.8 1 6.26 2.237 5 3.75 5S6.5 6.26 6.5 7.8c0 1.54-1.237 2.8-2.75 2.8Zm11-2.8C14.75 6.26 13.512 5 12 5S9.25 6.26 9.25 7.8c0 1.54 1.238 2.8 2.75 2.8s2.75-1.26 2.75-2.8Zm8.25 0C23 6.26 21.762 5 20.25 5S17.5 6.26 17.5 7.8c0 1.54 1.238 2.8 2.75 2.8S23 9.34 23 7.8Zm-5.5 8.4c0 1.54 1.238 2.8 2.75 2.8S23 17.74 23 16.2c0-1.54-1.238-2.8-2.75-2.8s-2.75 1.26-2.75 2.8Zm-2.75 0c0-1.54-1.238-2.8-2.75-2.8s-2.75 1.26-2.75 2.8c0 1.54 1.238 2.8 2.75 2.8s2.75-1.26 2.75-2.8Zm-8.25 0c0-1.54-1.237-2.8-2.75-2.8S1 14.66 1 16.2C1 17.74 2.237 19 3.75 19s2.75-1.26 2.75-2.8Z"/></svg>