<svg xmlns="http://www.w3.org/2000/svg" width="24" height="24"><path d="M10.6 20.25c0 1.512-1.26 2.75-2.8 2.75C6.26 23 5 21.762 5 20.25s1.26-2.75 2.8-2.75c1.54 0 2.8 1.238 2.8 2.75Zm-2.8-11C6.26 9.25 5 10.488 5 12s1.26 2.75 2.8 2.75c1.54 0 2.8-1.238 2.8-2.75S9.34 9.25 7.8 9.25ZM7.8 1C6.26 1 5 2.237 5 3.75S6.26 6.5 7.8 6.5c1.54 0 2.8-1.237 2.8-2.75S9.34 1 7.8 1Zm8.4 5.5c1.54 0 2.8-1.237 2.8-2.75S17.74 1 16.2 1c-1.54 0-2.8 1.237-2.8 2.75s1.26 2.75 2.8 2.75Zm0 2.75c-1.54 0-2.8 1.238-2.8 2.75s1.26 2.75 2.8 2.75c1.54 0 2.8-1.238 2.8-2.75s-1.26-2.75-2.8-2.75Zm0 8.25c-1.54 0-2.8 1.238-2.8 2.75S14.66 23 16.2 23c1.54 0 2.8-1.238 2.8-2.75s-1.26-2.75-2.8-2.75Z"/></svg>