<svg width="24" height="25" xmlns="http://www.w3.org/2000/svg"><path fill-rule="evenodd" clip-rule="evenodd" d="M6.01 17.578v-2.705c0-.125.044-.232.133-.32l9.71-9.711 3.338 3.337-9.72 9.71a.418.418 0 0 1-.31.134H6.454a.44.44 0 0 1-.446-.445ZM21.772 4.343a.886.886 0 0 1 0 1.255l-1.63 1.629-3.337-3.338 1.629-1.629a.886.886 0 0 1 1.255 0l2.083 2.083ZM4.018 7.47v12.207c0 .374.303.678.678.678h12.207a.678.678 0 0 0 .678-.678v-7.081l2.034-2.034v9.115a2.713 2.713 0 0 1-2.712 2.712H4.696a2.713 2.713 0 0 1-2.713-2.712V7.47a2.713 2.713 0 0 1 2.713-2.713h9.116l-2.034 2.035H4.696a.678.678 0 0 0-.678.678Z"/></svg>