<svg width="24" height="24" xmlns="http://www.w3.org/2000/svg"><g clip-path="url(#a)"><path d="M8.268 7.2C7.29 7.2 6.5 6.485 6.5 5.6c0-.885.79-1.6 1.768-1.6h12.964C22.21 4 23 4.715 23 5.6c0 .885-.79 1.6-1.768 1.6h-4.714v11.2c0 .885-.79 1.6-1.768 1.6s-1.768-.715-1.768-1.6V7.2H8.268ZM8.563 20c1.139 0 2.062-.895 2.062-2s-.923-2-2.063-2c-1.139 0-2.062.895-2.062 2s.923 2 2.063 2ZM5.125 18c0 1.105-.923 2-2.063 2C1.923 20 1 19.105 1 18s.923-2 2.063-2c1.139 0 2.062.895 2.062 2Z"/></g><defs><clipPath id="a"><path d="M0 0h24v24H0z"/></clipPath></defs></svg>