<svg width="24" height="24" xmlns="http://www.w3.org/2000/svg"><g clip-path="url(#a)" fill-rule="evenodd" clip-rule="evenodd"><path d="M19.333 5.778H4.667c-1.013 0-1.834.796-1.834 1.778v8.888c0 .982.821 1.778 1.834 1.778h14.666c1.013 0 1.834-.796 1.834-1.778V7.556c0-.982-.821-1.778-1.834-1.778ZM4.667 4C2.642 4 1 5.592 1 7.556v8.888C1 18.408 2.642 20 4.667 20h14.666C21.358 20 23 18.408 23 16.444V7.556C23 5.592 21.358 4 19.333 4H4.667Z"/><path d="M10.167 10.222h-2.75v3.556h2.75v-3.556Zm-2.75-1.778c-1.013 0-1.834.796-1.834 1.778v3.556c0 .982.821 1.778 1.834 1.778h2.75c1.012 0 1.833-.796 1.833-1.778v-3.556c0-.982-.82-1.778-1.833-1.778h-2.75ZM13.833 9.333c0-.49.41-.889.917-.889h2.75c.506 0 .917.398.917.89 0 .49-.41.888-.917.888h-2.75c-.506 0-.917-.398-.917-.889ZM13.833 12c0-.49.41-.889.917-.889h2.75c.506 0 .917.398.917.889 0 .49-.41.889-.917.889h-2.75c-.506 0-.917-.398-.917-.889ZM13.833 14.667c0-.491.41-.89.917-.89h2.75c.506 0 .917.399.917.89 0 .49-.41.889-.917.889h-2.75c-.506 0-.917-.398-.917-.89Z"/></g><defs><clipPath id="a"><path d="M0 0h24v24H0z"/></clipPath></defs></svg>