<svg xmlns="http://www.w3.org/2000/svg" width="24" height="24"><path d="m6.653 15.042-1.509 2.791h1.317l.508-1.108c.061-.144.122-.286.184-.425.06-.144.122-.3.183-.467h.033c.078.167.147.323.209.467.066.139.133.28.2.425l.541 1.108h1.367l-1.5-2.733 1.408-2.7H8.286l-.433 1.025c-.056.122-.114.256-.175.4a19.41 19.41 0 0 0-.175.475h-.034c-.072-.172-.141-.33-.208-.475a6.97 6.97 0 0 0-.183-.4L6.603 12.4H5.236l1.417 2.642Z"/><path fill-rule="evenodd" d="M5.344 4c0-1.1.927-2 2.073-2h7.468c.553 0 1.084.21 1.47.59l5.03 4.83c.396.37.615.88.615 1.41V20c0 1.1-.938 2-2.083 2H7.407c-1.028 0-1.88-.724-2.045-1.667H3.667c-.92 0-1.667-.746-1.667-1.666v-7.5c0-.92.746-1.667 1.667-1.667H5.34L5.344 4Zm-1.677 6.333h7.5c.46 0 .833.373.833.834v7.5c0 .46-.373.833-.833.833h-7.5a.833.833 0 0 1-.834-.833v-7.5c0-.46.373-.834.834-.834ZM14.708 3.5V8c0 .55.47 1 1.042 1h4.688l-5.73-5.5Z" clip-rule="evenodd"/></svg>