<svg xmlns="http://www.w3.org/2000/svg" width="24" height="24"><path fill-rule="evenodd" d="M2 5.854C2 4.278 3.164 3 4.6 3h8.8C14.836 3 16 4.278 16 5.854v2.701c0 .607-.448 1.098-1 1.098s-1-.491-1-1.098V5.854c0-.364-.269-.659-.6-.659H4.6c-.331 0-.6.295-.6.659v12.292c0 .364.269.659.6.659h8.8c.331 0 .6-.295.6-.659v-2.701c0-.607.448-1.098 1-1.098s1 .492 1 1.098v2.701C16 19.722 14.836 21 13.4 21H4.6C3.164 21 2 19.722 2 18.146V5.854Z" clip-rule="evenodd"/><path d="m19.348 10.956-2.012-1.952a1.013 1.013 0 0 1 0-1.465 1.089 1.089 0 0 1 1.51 0l3.841 3.729c.417.405.417 1.06 0 1.464l-3.842 3.729a1.089 1.089 0 0 1-1.509 0 1.013 1.013 0 0 1 0-1.465l2.012-1.963H10.07c-.588 0-1.07-.467-1.07-1.038s.482-1.039 1.07-1.039h9.278Z"/></svg>