<svg width="24" height="24" xmlns="http://www.w3.org/2000/svg"><path d="m17.632 7.579-2.365-2.453a.423.423 0 0 0-.602 0L12.3 7.579c-.272.273-.077.75.296.75h1.527v2.656c0 .485.381.882.847.882.467 0 .848-.397.848-.882V8.329h1.518c.381 0 .568-.477.296-.75ZM13.62 13.958c-.409-2.093-2.228-3.664-4.414-3.664a4.496 4.496 0 0 0-3.993 2.45C3.405 12.94 2 14.487 2 16.36 2 18.368 3.615 20 5.603 20h7.807c1.657 0 3.002-1.359 3.002-3.033 0-1.602-1.23-2.9-2.792-3.009ZM18.906 16.153 16.541 13.7c-.271-.273-.085-.75.296-.75h1.518v-2.656c0-.485.382-.882.848-.882.466 0 .848.397.848.882v2.656h1.526c.373 0 .568.477.296.75l-2.365 2.453a.423.423 0 0 1-.602 0Z"/></svg>