<svg width="24" height="24" xmlns="http://www.w3.org/2000/svg"><path d="M12.727 18.595a.247.247 0 0 1-.178.072.248.248 0 0 1-.18-.072l-.23-.224a.251.251 0 0 1-.08-.173.215.215 0 0 1 .069-.174l1.63-1.58-1.63-1.58a.216.216 0 0 1-.069-.173.252.252 0 0 1 .08-.173l.23-.224a.248.248 0 0 1 .18-.072c.07 0 .13.024.178.072l2.042 1.977a.22.22 0 0 1 0 .347l-2.042 1.977Z"/><path fill-rule="evenodd" clip-rule="evenodd" d="M17.735 2.582c-2.166-1.046-4.86-.683-6.658 1.1A5.734 5.734 0 0 0 9.779 9.88l-7.088 7.033a2.303 2.303 0 0 0 0 3.29 2.354 2.354 0 0 0 3.32 0l1.903-1.886A5.589 5.589 0 0 0 13.177 22c3.086 0 5.588-2.487 5.588-5.556a5.511 5.511 0 0 0-1.193-3.431 5.776 5.776 0 0 0 1.729-1.181 5.73 5.73 0 0 0 1.118-6.59l-3.248 3.22a.881.881 0 0 1-1.262 0l-1.423-1.41a.878.878 0 0 1 0-1.25l3.249-3.22Zm-.088 13.863c0 2.454-2.001 4.444-4.47 4.444-2.47 0-4.471-1.99-4.471-4.444 0-2.455 2.002-4.445 4.47-4.445 2.47 0 4.471 1.99 4.471 4.445Z"/></svg>