<svg xmlns="http://www.w3.org/2000/svg" width="24" height="24"><path d="M8.316 7.188h12.631A1.06 1.06 0 0 0 22 6.125a1.06 1.06 0 0 0-1.053-1.063H8.316a1.06 1.06 0 0 0-1.053 1.063 1.06 1.06 0 0 0 1.053 1.063Zm12.631 10.625H8.316a1.06 1.06 0 0 0-1.053 1.062 1.06 1.06 0 0 0 1.053 1.063h12.631A1.06 1.06 0 0 0 22 18.875a1.06 1.06 0 0 0-1.053-1.063Zm0-6.375H8.316A1.06 1.06 0 0 0 7.263 12.5a1.06 1.06 0 0 0 1.053 1.063h12.631A1.06 1.06 0 0 0 22 12.5a1.06 1.06 0 0 0-1.053-1.063ZM4.632 16.75H2.526a.524.524 0 0 0-.526.531c0 .298.232.532.526.532h1.58v.53h-.527a.524.524 0 0 0-.526.532c0 .297.231.531.526.531h.526v.532H2.526a.524.524 0 0 0-.526.53c0 .298.232.532.526.532h2.106a.524.524 0 0 0 .526-.531V17.28a.524.524 0 0 0-.526-.531ZM2.526 5.062h.527V7.72c0 .297.231.531.526.531a.524.524 0 0 0 .526-.531V4.53A.524.524 0 0 0 3.58 4H2.526A.524.524 0 0 0 2 4.531c0 .298.232.532.526.532Zm2.106 5.313H2.526a.524.524 0 0 0-.526.531c0 .298.232.531.526.531h1.369L2.126 13.52a.524.524 0 0 0-.126.34v.234c0 .297.232.531.526.531h2.106a.524.524 0 0 0 .526-.531.524.524 0 0 0-.526-.531H3.263l1.769-2.083a.524.524 0 0 0 .126-.34v-.234a.524.524 0 0 0-.526-.531Z"/></svg>