<svg xmlns="http://www.w3.org/2000/svg" width="24" height="24"><path d="M21.474 15.75h-2.106a.524.524 0 0 0-.526.531c0 .298.232.532.526.532h1.58v.53h-.527a.524.524 0 0 0-.526.532c0 .297.231.531.526.531h.526v.532h-1.579a.524.524 0 0 0-.526.53c0 .298.232.532.526.532h2.106a.524.524 0 0 0 .526-.531V16.28a.524.524 0 0 0-.526-.531ZM19.368 4.062h.527V6.72c0 .297.231.531.526.531a.524.524 0 0 0 .526-.531V3.53A.524.524 0 0 0 20.421 3h-1.053a.524.524 0 0 0-.526.531c0 .298.232.531.526.531ZM22 10.14v-.234a.524.524 0 0 0-.526-.531h-2.106a.524.524 0 0 0-.526.531c0 .298.232.531.526.531h1.369l-1.769 2.083a.524.524 0 0 0-.126.34v.234c0 .297.232.531.526.531h2.106a.524.524 0 0 0 .526-.531.524.524 0 0 0-.526-.531h-1.369l1.769-2.083a.524.524 0 0 0 .126-.34Zm-6.316-6.078H3.053A1.06 1.06 0 0 0 2 5.125a1.06 1.06 0 0 0 1.053 1.063h12.631a1.06 1.06 0 0 0 1.053-1.063 1.06 1.06 0 0 0-1.053-1.063Zm0 12.75H3.053A1.06 1.06 0 0 0 2 17.875a1.06 1.06 0 0 0 1.053 1.063h12.631a1.06 1.06 0 0 0 1.053-1.063 1.06 1.06 0 0 0-1.053-1.063Zm0-6.375H3.053A1.06 1.06 0 0 0 2 11.5a1.06 1.06 0 0 0 1.053 1.063h12.631a1.06 1.06 0 0 0 1.053-1.063 1.06 1.06 0 0 0-1.053-1.063Z"/></svg>