<svg xmlns="http://www.w3.org/2000/svg" width="24" height="24"><path d="M3.111 22H20.89C21.5 22 22 21.5 22 20.889s-.5-1.111-1.111-1.111H3.11c-.611 0-1.111.5-1.111 1.11C2 21.5 2.5 22 3.111 22Zm0-4.444H20.89c.611 0 1.111-.5 1.111-1.112 0-.61-.5-1.11-1.111-1.11H3.11c-.611 0-1.111.5-1.111 1.11 0 .612.5 1.112 1.111 1.112Zm0-4.445H20.89c.611 0 1.111-.5 1.111-1.111s-.5-1.111-1.111-1.111H3.11C2.5 10.889 2 11.389 2 12s.5 1.111 1.111 1.111Zm0-4.444H20.89c.611 0 1.111-.5 1.111-1.111 0-.612-.5-1.112-1.111-1.112H3.11C2.5 6.444 2 6.944 2 7.556c0 .61.5 1.11 1.111 1.11ZM2 3.11c0 .611.5 1.111 1.111 1.111H20.89c.611 0 1.111-.5 1.111-1.11C22 2.5 21.5 2 20.889 2H3.11C2.5 2 2 2.5 2 3.111Z"/></svg>