<svg xmlns="http://www.w3.org/2000/svg" width="24" height="24"><path d="M3.622 10.4C2.724 10.4 2 11.115 2 12c0 .885.724 1.6 1.622 1.6.897 0 1.621-.715 1.621-1.6 0-.885-.724-1.6-1.621-1.6Zm0-6.4C2.724 4 2 4.715 2 5.6c0 .885.724 1.6 1.622 1.6.897 0 1.621-.715 1.621-1.6 0-.885-.724-1.6-1.621-1.6Zm0 12.8C2.724 16.8 2 17.525 2 18.4c0 .875.735 1.6 1.622 1.6.886 0 1.621-.725 1.621-1.6 0-.875-.724-1.6-1.621-1.6Zm4.324 2.667h12.973c.595 0 1.081-.48 1.081-1.067s-.486-1.067-1.081-1.067H7.946c-.595 0-1.081.48-1.081 1.067s.486 1.067 1.08 1.067Zm0-6.4h12.973c.595 0 1.081-.48 1.081-1.067s-.486-1.067-1.081-1.067H7.946c-.595 0-1.081.48-1.081 1.067s.486 1.067 1.08 1.067ZM6.865 5.6c0 .587.486 1.067 1.08 1.067H20.92c.595 0 1.081-.48 1.081-1.067s-.486-1.067-1.081-1.067H7.946c-.595 0-1.081.48-1.081 1.067Z"/></svg>