<svg xmlns="http://www.w3.org/2000/svg" width="24" height="24"><path d="M14.878 8.722c0-.393-.056-.747-.167-1.076-.1-.342-.267-.62-.489-.861a2.32 2.32 0 0 0-.833-.557 3.332 3.332 0 0 0-1.178-.203c-.433 0-.822.05-1.144.165a2.352 2.352 0 0 0-.8.456 2.063 2.063 0 0 0-.656 1.531c0 .608.278 1.114.822 1.532.423.316.856.607 1.567.886H6.878c-.056-.101-.122-.215-.167-.317-.289-.607-.433-1.303-.433-2.113 0-.773.144-1.469.444-2.114a4.68 4.68 0 0 1 1.234-1.633 6.086 6.086 0 0 1 1.888-1.05A7.752 7.752 0 0 1 12.267 3c.9 0 1.71.14 2.455.43A5.345 5.345 0 0 1 16.6 4.62a5.152 5.152 0 0 1 1.2 1.81c.278.697.422 1.456.422 2.292h-3.344Zm6.01 3.139H3.112C2.5 11.86 2 12.43 2 13.127c0 .696.5 1.265 1.111 1.265h9.578c.2.089.444.178.611.254.411.215.733.43.967.645.233.215.389.456.477.722.078.253.123.544.123.873 0 .291-.056.57-.156.835a1.77 1.77 0 0 1-.467.671c-.21.19-.466.33-.788.443-.323.102-.7.165-1.123.165-.477 0-.922-.05-1.31-.165a2.685 2.685 0 0 1-1.012-.531c-.278-.24-.5-.557-.655-.95a4.386 4.386 0 0 1-.278-1.531h-3.3c0 .696.089 1.43.266 2a5.68 5.68 0 0 0 .723 1.531c.31.444.666.836 1.089 1.165.41.33.866.608 1.355.823.489.215 1 .38 1.533.493a8.577 8.577 0 0 0 1.6.165c.89 0 1.7-.114 2.423-.354.722-.24 1.344-.57 1.855-1 .511-.43.911-.975 1.19-1.608.277-.633.421-1.355.421-2.165 0-.76-.11-1.443-.344-2.038a4.58 4.58 0 0 0-.189-.417h3.189c.611 0 1.111-.57 1.111-1.266v-.025c0-.697-.5-1.266-1.111-1.266Z"/></svg>