<svg width="24" height="24" xmlns="http://www.w3.org/2000/svg"><path fill-rule="evenodd" clip-rule="evenodd" d="M15.571 8.129C14.986 4.529 13.607 2 12.002 2s-2.985 2.528-3.57 6.129h7.14Zm5.655 0a10.022 10.022 0 0 0-6.372-5.71c.984 1.363 1.661 3.416 2.016 5.71h4.356ZM9.146 2.42c-.983 1.363-1.661 3.416-2.012 5.71H2.778a10.016 10.016 0 0 1 6.369-5.71Zm6.59 12.162a25.267 25.267 0 0 0 0-5.162H8.263a25.272 25.272 0 0 0 0 5.162h7.473ZM22 12c0 .894-.125 1.753-.347 2.58h-4.622a26.01 26.01 0 0 0 .133-2.58c0-.868-.048-1.735-.133-2.582h4.626c.218.827.343 1.686.343 2.581ZM6.97 14.58c-.08-.847-.13-1.714-.13-2.58 0-.868.05-1.735.134-2.582H2.347A10.087 10.087 0 0 0 2 12c0 .895.13 1.754.347 2.58h4.622Zm8.602 1.29C14.986 19.47 13.607 22 12.002 22s-2.985-2.528-3.57-6.13h7.14Zm-.714 5.71a10.031 10.031 0 0 0 6.373-5.71h-4.356c-.355 2.294-1.033 4.347-2.017 5.71Zm-7.723-5.71c.355 2.294 1.033 4.347 2.017 5.71a10.022 10.022 0 0 1-6.373-5.71h4.356Z"/></svg>