<svg xmlns="http://www.w3.org/2000/svg" width="24" height="24"><g clip-path="url(#a)"><path d="M7.417 10.615H5.583V8.77a.923.923 0 0 0-.916-.923.923.923 0 0 0-.917.923v1.846H1.917a.923.923 0 0 0 0 1.846H3.75v1.847c0 .507.412.923.917.923a.923.923 0 0 0 .916-.923V12.46h1.834a.923.923 0 0 0 0-1.846Zm10.083.924c1.522 0 2.74-1.237 2.74-2.77C20.24 7.237 19.023 6 17.5 6c-.293 0-.578.046-.834.13.522.747.825 1.652.825 2.64 0 .987-.312 1.882-.825 2.64.256.082.54.129.834.129Zm-4.583 0c1.521 0 2.74-1.237 2.74-2.77 0-1.532-1.219-2.769-2.74-2.769a2.756 2.756 0 0 0-2.75 2.77 2.756 2.756 0 0 0 2.75 2.769Zm0 1.846c-1.834 0-5.5.923-5.5 2.769v.923c0 .508.412.923.916.923H17.5a.923.923 0 0 0 .917-.923v-.923c0-1.846-3.667-2.77-5.5-2.77Zm6.068.147c.76.674 1.265 1.533 1.265 2.622v1.384c0 .157-.018.314-.046.462h2.338a.455.455 0 0 0 .458-.462v-1.384c0-1.422-2.172-2.299-4.015-2.622Z"/></g><defs><clipPath id="a"><path d="M0 0h24v24H0z"/></clipPath></defs></svg>