<svg xmlns="http://www.w3.org/2000/svg" width="24" height="24"><path fill-rule="evenodd" d="M20.572 6.164a2.144 2.144 0 1 0-2.736-2.735H6.164a2.144 2.144 0 1 0-2.735 2.735v11.673a2.144 2.144 0 1 0 2.735 2.735h11.672a2.144 2.144 0 1 0 2.736-2.735V6.164ZM5.857 18.572h12.286a2.16 2.16 0 0 1 .429-.429V5.858a2.156 2.156 0 0 1-.43-.43H5.859a2.156 2.156 0 0 1-.43.43v12.285c.163.122.307.267.43.429ZM9 7.134a2 2 0 0 0-2 2v1.887a2 2 0 0 0 2 2h1.438a2.946 2.946 0 0 1 2.448-1.944V9.134a2 2 0 0 0-2-2H9ZM13.286 12a2 2 0 0 0-2 2v1.715a2 2 0 0 0 2 2h1.715a2 2 0 0 0 2-2V14a2 2 0 0 0-2-2h-1.715Z" clip-rule="evenodd"/></svg>