<svg xmlns="http://www.w3.org/2000/svg" width="24" height="24"><g clip-path="url(#a)"><path d="M12 12.688c1.494 0 2.814.357 3.887.824.99.44 1.613 1.43 1.613 2.503v.568a.92.92 0 0 1-.917.917H7.417a.92.92 0 0 1-.917-.917v-.559c0-1.082.623-2.072 1.613-2.502A9.57 9.57 0 0 1 12 12.687Zm-7.333.229A1.839 1.839 0 0 0 6.5 11.083 1.839 1.839 0 0 0 4.667 9.25a1.839 1.839 0 0 0-1.834 1.833c0 1.009.825 1.834 1.834 1.834Zm1.035 1.008a6.4 6.4 0 0 0-1.035-.092 6.37 6.37 0 0 0-2.549.532A1.843 1.843 0 0 0 1 16.061v.522a.92.92 0 0 0 .917.917h3.208v-1.476c0-.76.21-1.476.577-2.099Zm13.631-1.008a1.839 1.839 0 0 0 1.834-1.834 1.839 1.839 0 0 0-1.834-1.833 1.839 1.839 0 0 0-1.833 1.833c0 1.009.825 1.834 1.833 1.834ZM23 16.06c0-.743-.44-1.403-1.118-1.696a6.371 6.371 0 0 0-2.549-.532 6.4 6.4 0 0 0-1.035.092c.366.623.577 1.338.577 2.1V17.5h3.208a.92.92 0 0 0 .917-.917v-.522ZM12 6.5a2.746 2.746 0 0 1 2.75 2.75A2.746 2.746 0 0 1 12 12a2.746 2.746 0 0 1-2.75-2.75A2.746 2.746 0 0 1 12 6.5Z"/></g><defs><clipPath id="a"><path d="M0 0h24v24H0z"/></clipPath></defs></svg>