<svg xmlns="http://www.w3.org/2000/svg" width="24" height="24"><path d="M7.833 6.323c-.92 0-1.667.746-1.667 1.666v3.534c0 .92.746 1.667 1.667 1.667h1.39c.434 0 .78-.342.946-.742a2.5 2.5 0 0 1 2.312-1.547.552.552 0 0 0 .552-.552v-2.36c0-.92-.746-1.666-1.666-1.666H7.833ZM12.834 12c-.921 0-1.667.746-1.667 1.667V17c0 .92.746 1.666 1.667 1.666h3.332c.92 0 1.667-.746 1.667-1.666v-3.333c0-.92-.746-1.667-1.666-1.667h-3.334Z"/><path fill-rule="evenodd" d="M5.333 2A3.333 3.333 0 0 0 2 5.333v13.334A3.333 3.333 0 0 0 5.333 22h13.334A3.333 3.333 0 0 0 22 18.667V5.333A3.333 3.333 0 0 0 18.667 2H5.333Zm13.334 1.667H5.333c-.92 0-1.666.746-1.666 1.666v13.334c0 .92.746 1.666 1.666 1.666h13.334c.92 0 1.666-.746 1.666-1.666V5.333c0-.92-.746-1.666-1.666-1.666Z" clip-rule="evenodd"/></svg>