<svg xmlns="http://www.w3.org/2000/svg" width="24" height="24"><path d="M20 15.667C20 19.718 16.904 23 13.082 23c-2.82 0-5.353-1.824-6.4-4.602l-2.62-6.976c-.268-.724.372-1.448 1.073-1.21l.683.239c.484.165.882.559 1.072 1.063l1.107 2.943c.07.183.225.293.398.293h.363V3.98c0-.633.484-1.147 1.081-1.147s1.081.514 1.081 1.146v7.563c0 .256.19.458.432.458s.433-.202.433-.458V2.146c0-.633.484-1.146 1.08-1.146.597 0 1.082.513 1.082 1.146v9.396c0 .256.19.458.432.458s.432-.202.432-.458V3.52c0-.633.485-1.146 1.081-1.146.597 0 1.081.513 1.081 1.146v8.02c0 .257.19.459.433.459.242 0 .432-.202.432-.458V6.27c0-.633.484-1.146 1.081-1.146S20 5.638 20 6.271v9.396Z"/></svg>