<svg xmlns="http://www.w3.org/2000/svg" width="24" height="24"><path fill-rule="evenodd" d="M2 5.854C2 4.278 3.229 3 4.744 3h9.29c1.515 0 2.744 1.278 2.744 2.854v2.701c0 .607-.473 1.098-1.056 1.098-.583 0-1.055-.491-1.055-1.098V5.854a.646.646 0 0 0-.634-.659H4.744a.646.646 0 0 0-.633.659v12.292c0 .364.284.659.633.659h9.29c.35 0 .633-.295.633-.659v-2.701c0-.607.472-1.098 1.055-1.098s1.056.492 1.056 1.098v2.701c0 1.576-1.229 2.854-2.745 2.854H4.744C3.23 21 2 19.722 2 18.146V5.854Z" clip-rule="evenodd"/><path d="m10.077 13.044 2.123 1.952a.977.977 0 0 1 0 1.465 1.196 1.196 0 0 1-1.592 0l-4.055-3.729a.977.977 0 0 1 0-1.464l4.055-3.729a1.196 1.196 0 0 1 1.592 0 .976.976 0 0 1 0 1.465l-2.123 1.963h9.793c.622 0 1.13.467 1.13 1.038s-.508 1.039-1.13 1.039h-9.793Z"/></svg>