<svg width="24" height="24" xmlns="http://www.w3.org/2000/svg"><path fill-rule="evenodd" clip-rule="evenodd" d="m16.691 14.815 3.755-3.753a5.31 5.31 0 0 0-7.508-7.507l-2.844 2.844a6.66 6.66 0 0 1 3.386.368l1.335-1.336a2.657 2.657 0 0 1 3.753 0 2.656 2.656 0 0 1 0 3.754l-3.753 3.753a2.656 2.656 0 0 1-3.753 0 2.612 2.612 0 0 1-.655-1.126c-.02.01-.038.021-.057.032-.08.044-.16.088-.226.156l-1.745 1.744a5.3 5.3 0 0 0 .806 1.071 5.307 5.307 0 0 0 7.506 0ZM9.185 18.57l1.335-1.337a6.655 6.655 0 0 0 3.386.368l-2.844 2.845a5.31 5.31 0 0 1-7.507-7.508l3.753-3.753a5.308 5.308 0 0 1 7.507 0c.326.326.583.692.806 1.071L13.876 12a.944.944 0 0 1-.22.152l-.062.035a2.628 2.628 0 0 0-.656-1.125 2.656 2.656 0 0 0-3.753 0L5.43 14.815a2.658 2.658 0 0 0 0 3.755 2.658 2.658 0 0 0 3.754 0Z"/></svg>