<svg xmlns="http://www.w3.org/2000/svg" width="24" height="24"><path fill-rule="evenodd" d="M4.25 2A2.25 2.25 0 0 0 2 4.25v14a2.25 2.25 0 0 0 2.25 2.25h3.5a.75.75 0 0 0 0-1.5h-3.5a.75.75 0 0 1-.75-.75v-2.5H10a.75.75 0 0 0 .75-.75v-3.25H15a.75.75 0 0 0 0-1.5h-4.25v-2.5H17v.152a.75.75 0 0 0 1.5 0V4.25A2.25 2.25 0 0 0 16.25 2h-12Zm5 9.75v2.5H3.5v-2.5h5.75Zm0-4v2.5H3.5v-2.5h5.75ZM17 6.25v-2a.75.75 0 0 0-.75-.75h-12a.75.75 0 0 0-.75.75v2H17ZM18.659 9.862c.614-.614 1.655-.57 2.324.1l1.819 1.819c.669.669.714 1.71.1 2.324l-8.056 8.056a1.475 1.475 0 0 1-.733.396l-2.325.507c-.6.13-1.563.182-1.917-.172-.353-.353-.302-1.317-.171-1.917l.506-2.325c.061-.28.198-.533.397-.732l8.056-8.056Zm3.03 3.03-1.818-1.817-1.363 1.362 1.819 1.818 1.362-1.362Zm-9.874 6.238 5.633-5.632 1.818 1.818-5.632 5.632-2.325.507.506-2.325Z" clip-rule="evenodd"/></svg>