<svg width="24" height="24" xmlns="http://www.w3.org/2000/svg"><path fill-rule="evenodd" clip-rule="evenodd" d="m11.817 14.041.596 1.322a.502.502 0 0 1-.252.663l-1.284.578a.502.502 0 0 1-.664-.252l-.596-1.321c-.687.149-1.4.17-2.097.063l-.514 1.356a.502.502 0 0 1-.648.292l-1.316-.499a.502.502 0 0 1-.292-.647l.514-1.355a5.77 5.77 0 0 1-1.528-1.436l-1.323.595a.502.502 0 0 1-.664-.251l-.578-1.282a.5.5 0 0 1 .251-.664l1.323-.595c-.149-.688-.17-1.4-.064-2.095L1.324 8a.502.502 0 0 1-.291-.647l.498-1.314a.502.502 0 0 1 .648-.292l1.357.514c.381-.592.87-1.11 1.438-1.527l-.596-1.321a.502.502 0 0 1 .251-.664l1.284-.578a.503.503 0 0 1 .664.252l.596 1.321A5.765 5.765 0 0 1 9.27 3.68l.514-1.356a.502.502 0 0 1 .648-.291l1.316.498c.26.098.39.388.292.647l-.514 1.355c.592.381 1.11.869 1.528 1.436l1.323-.595a.503.503 0 0 1 .664.251l.578 1.282a.5.5 0 0 1-.251.664l-1.323.595c.149.689.17 1.4.064 2.095l1.357.514a.502.502 0 0 1 .292.647l-.5 1.315a.502.502 0 0 1-.647.291l-1.357-.513a5.774 5.774 0 0 1-1.437 1.526Zm-3.422-1.25a3.425 3.425 0 0 0 3.186-2.198 3.377 3.377 0 0 0-.08-2.603 3.382 3.382 0 0 0-1.898-1.785 3.397 3.397 0 0 0-1.207-.221 3.425 3.425 0 0 0-3.185 2.198 3.377 3.377 0 0 0 .08 2.602 3.382 3.382 0 0 0 1.898 1.785c.389.147.795.222 1.206.222ZM21.51 18.576l.76.54c.145.103.18.305.076.45l-.525.737a.323.323 0 0 1-.45.076l-.76-.54a3.707 3.707 0 0 1-1.143.715l.155.92a.322.322 0 0 1-.264.37l-.893.151a.323.323 0 0 1-.372-.264l-.155-.919a3.716 3.716 0 0 1-1.315-.3l-.54.758a.323.323 0 0 1-.45.076l-.738-.523a.322.322 0 0 1-.076-.45l.54-.76a3.708 3.708 0 0 1-.716-1.141l-.92.155a.323.323 0 0 1-.372-.264l-.15-.892a.323.323 0 0 1 .264-.372l.92-.155c.02-.451.122-.897.301-1.313l-.76-.54a.322.322 0 0 1-.076-.45l.524-.736a.323.323 0 0 1 .45-.076l.761.54c.333-.306.721-.55 1.143-.716l-.156-.919a.322.322 0 0 1 .265-.371l.892-.15a.323.323 0 0 1 .372.263l.156.92c.452.019.899.12 1.314.3l.54-.759a.323.323 0 0 1 .451-.076l.738.524a.322.322 0 0 1 .076.45l-.54.76c.306.333.549.72.716 1.14l.92-.154a.323.323 0 0 1 .372.264l.15.891a.322.322 0 0 1-.264.372l-.92.155c-.02.452-.122.898-.302 1.313Zm-2.306.416a2.198 2.198 0 0 0 1.054-2.253 2.172 2.172 0 0 0-.89-1.418 2.177 2.177 0 0 0-1.634-.374 2.184 2.184 0 0 0-1.794 2.52c.097.577.413 1.08.89 1.419a2.177 2.177 0 0 0 1.633.374c.264-.044.513-.135.741-.268Z"/></svg>