<svg xmlns="http://www.w3.org/2000/svg" width="24" height="24"><path d="M3.15 11.818c.308-1.617 1.826-2.728 3.477-2.728H9.85c.572 0 1.045-.473 1.045-1.045S10.422 7 9.85 7H6.737c-2.872 0-5.435 2.101-5.71 4.961A5.495 5.495 0 0 0 6.495 18H9.85c.572 0 1.045-.473 1.045-1.045s-.473-1.045-1.045-1.045H6.495a3.42 3.42 0 0 1-3.345-4.092ZM8.695 13.6h6.6c.606 0 1.101-.495 1.101-1.1 0-.605-.495-1.1-1.1-1.1H8.695c-.605 0-1.1.495-1.1 1.1 0 .605.495 1.1 1.1 1.1Zm8.56-6.6H14.14c-.572 0-1.046.473-1.046 1.045s.474 1.045 1.046 1.045h3.223c1.65 0 3.169 1.111 3.477 2.728a3.42 3.42 0 0 1-3.345 4.092h-3.355c-.572 0-1.046.473-1.046 1.045S13.57 18 14.141 18h3.355a5.51 5.51 0 0 0 5.479-6.039C22.7 9.101 20.125 7 17.255 7Z"/></svg>