<svg xmlns="http://www.w3.org/2000/svg" width="24" height="24"><g clip-path="url(#a)"><path fill-rule="evenodd" d="M7.417 2c-1.146 0-2.073.9-2.073 2L5.34 9.5H3.667C2.747 9.5 2 10.246 2 11.167v7.5c0 .92.746 1.666 1.667 1.666h1.695C5.527 21.276 6.38 22 7.406 22h12.51C21.063 22 22 21.1 22 20V8.83c0-.53-.219-1.04-.615-1.41l-5.03-4.83a2.091 2.091 0 0 0-1.47-.59H7.417Zm-3.75 8.333a.833.833 0 0 0-.834.834v7.5c0 .46.373.833.834.833H19.5c.46 0 .833-.373.833-.833v-7.5a.833.833 0 0 0-.833-.834H3.667ZM14.708 8V3.5l5.73 5.5H15.75c-.573 0-1.042-.45-1.042-1Z" clip-rule="evenodd"/><path d="M4.63 17.08c-.33 0-.607-.064-.834-.193a1.587 1.587 0 0 1-.566-.594l.666-.493c.08.147.174.256.28.327a.583.583 0 0 0 .327.106c.178 0 .311-.053.4-.16.093-.11.14-.31.14-.6v-2.82h.98v2.9c0 .28-.049.536-.147.767a1.216 1.216 0 0 1-.46.553c-.204.138-.466.207-.786.207ZM8.355 17.08c-.284 0-.569-.053-.853-.16a2.326 2.326 0 0 1-.754-.467l.56-.673c.156.133.33.242.52.327.191.084.376.126.554.126.204 0 .355-.037.453-.113a.362.362 0 0 0 .153-.307.316.316 0 0 0-.173-.3 3.655 3.655 0 0 0-.453-.22l-.567-.24a1.925 1.925 0 0 1-.42-.246 1.279 1.279 0 0 1-.327-.394 1.128 1.128 0 0 1-.126-.546c0-.24.064-.458.193-.654.133-.195.316-.35.547-.466.235-.116.504-.174.806-.174a2.028 2.028 0 0 1 1.4.574l-.5.62a1.797 1.797 0 0 0-.426-.254 1.169 1.169 0 0 0-.474-.093.7.7 0 0 0-.406.107.326.326 0 0 0-.147.286c0 .134.062.234.187.3.129.067.286.138.473.214l.56.226c.262.107.471.254.627.44.155.187.233.434.233.74 0 .24-.064.463-.193.667a1.385 1.385 0 0 1-.56.493c-.245.125-.54.187-.887.187ZM12.5 17.08a1.94 1.94 0 0 1-1.034-.273 1.885 1.885 0 0 1-.693-.78c-.165-.343-.247-.75-.247-1.22 0-.476.082-.878.247-1.207.169-.333.4-.587.693-.76a1.976 1.976 0 0 1 1.033-.267c.391 0 .734.09 1.027.267.298.173.529.427.693.76.17.333.254.736.254 1.207 0 .47-.085.877-.254 1.22a1.827 1.827 0 0 1-.693.78 1.906 1.906 0 0 1-1.027.273Zm0-.847a.81.81 0 0 0 .706-.386c.173-.258.26-.605.26-1.04 0-.436-.087-.776-.26-1.02a.822.822 0 0 0-.707-.367.822.822 0 0 0-.706.367c-.174.244-.26.584-.26 1.02 0 .435.086.782.26 1.04a.81.81 0 0 0 .706.386ZM15.29 17v-4.347h1.007l1.133 2.16.427.96h.026A24.45 24.45 0 0 0 17.81 15a7.494 7.494 0 0 1-.047-.813v-1.534h.934V17H17.69l-1.133-2.167-.427-.946h-.027l.074.773c.03.276.046.542.046.8V17h-.933Z"/></g><defs><clipPath id="a"><path d="M0 0h24v24H0z"/></clipPath></defs></svg>