<svg width="24" height="24" xmlns="http://www.w3.org/2000/svg"><path fill-rule="evenodd" clip-rule="evenodd" d="M7.833 9.083h-2.5c-.69 0-1.25.56-1.25 1.25v8.334c0 .69.56 1.25 1.25 1.25h2.5c.69 0 1.25-.56 1.25-1.25v-8.334c0-.69-.56-1.25-1.25-1.25ZM5.333 7A3.333 3.333 0 0 0 2 10.333v8.334A3.333 3.333 0 0 0 5.333 22h2.5a3.333 3.333 0 0 0 3.334-3.333v-8.334A3.333 3.333 0 0 0 7.833 7h-2.5Z"/><path d="M2 3.25C2 2.56 2.56 2 3.25 2h6.667a1.25 1.25 0 0 1 0 2.5H3.25C2.56 4.5 2 3.94 2 3.25ZM12.833 3.25c0-.69.56-1.25 1.25-1.25h6.667a1.25 1.25 0 1 1 0 2.5h-6.667c-.69 0-1.25-.56-1.25-1.25Z"/><path fill-rule="evenodd" clip-rule="evenodd" d="M18.667 9.083h-2.5c-.69 0-1.25.56-1.25 1.25V12c0 .69.56 1.25 1.25 1.25h2.5c.69 0 1.25-.56 1.25-1.25v-1.667c0-.69-.56-1.25-1.25-1.25ZM16.167 7a3.333 3.333 0 0 0-3.334 3.333V12a3.333 3.333 0 0 0 3.334 3.333h2.5A3.333 3.333 0 0 0 22 12v-1.667A3.333 3.333 0 0 0 18.667 7h-2.5Z"/></svg>