<svg xmlns="http://www.w3.org/2000/svg" width="24" height="24"><path d="M3.111 16.5h3.333c.612 0 1.112-.506 1.112-1.125s-.5-1.125-1.112-1.125H3.111C2.5 14.25 2 14.756 2 15.375S2.5 16.5 3.111 16.5Zm7.222 0h3.334c.61 0 1.11-.506 1.11-1.125s-.5-1.125-1.11-1.125h-3.334c-.61 0-1.11.506-1.11 1.125s.5 1.125 1.11 1.125Zm7.223 0h3.333c.611 0 1.111-.506 1.111-1.125s-.5-1.125-1.111-1.125h-3.333c-.612 0-1.112.506-1.112 1.125s.5 1.125 1.112 1.125ZM3.11 21c.611 0 1.111-.506 1.111-1.125s-.5-1.125-1.11-1.125C2.5 18.75 2 19.256 2 19.875S2.5 21 3.111 21Zm4.445 0c.61 0 1.11-.506 1.11-1.125s-.5-1.125-1.11-1.125c-.612 0-1.112.506-1.112 1.125S6.944 21 7.556 21ZM12 21c.611 0 1.111-.506 1.111-1.125s-.5-1.125-1.111-1.125-1.111.506-1.111 1.125S11.389 21 12 21Zm4.444 0c.612 0 1.112-.506 1.112-1.125s-.5-1.125-1.112-1.125c-.61 0-1.11.506-1.11 1.125s.5 1.125 1.11 1.125Zm4.445 0C21.5 21 22 20.494 22 19.875s-.5-1.125-1.111-1.125-1.111.506-1.111 1.125.5 1.125 1.11 1.125ZM3.11 12h6.667c.61 0 1.11-.506 1.11-1.125s-.5-1.125-1.11-1.125H3.11C2.5 9.75 2 10.256 2 10.875S2.5 12 3.111 12Zm11.111 0h6.667C21.5 12 22 11.494 22 10.875s-.5-1.125-1.111-1.125h-6.667c-.61 0-1.11.506-1.11 1.125s.5 1.125 1.11 1.125ZM2 4.125v2.25C2 6.994 2.5 7.5 3.111 7.5H20.89C21.5 7.5 22 6.994 22 6.375v-2.25C22 3.506 21.5 3 20.889 3H3.11C2.5 3 2 3.506 2 4.125Z"/></svg>