<svg xmlns="http://www.w3.org/2000/svg" width="24" height="24"><path d="M20.889 15.375H3.11C2.5 15.375 2 15.881 2 16.5s.5 1.125 1.111 1.125H20.89c.611 0 1.111-.506 1.111-1.125s-.5-1.125-1.111-1.125Zm0-5.625H3.11C2.5 9.75 2 10.256 2 10.875V12c0 .619.5 1.125 1.111 1.125H20.89C21.5 13.125 22 12.619 22 12v-1.125c0-.619-.5-1.125-1.111-1.125Zm0-6.75H3.11C2.5 3 2 3.506 2 4.125v2.25C2 6.994 2.5 7.5 3.111 7.5H20.89C21.5 7.5 22 6.994 22 6.375v-2.25C22 3.506 21.5 3 20.889 3Zm.555 16.875H2.556a.554.554 0 0 0-.556.563c0 .315.244.562.556.562h18.888a.554.554 0 0 0 .556-.563.554.554 0 0 0-.556-.562Z"/></svg>