<svg xmlns="http://www.w3.org/2000/svg" width="24" height="24"><path d="M17.5 16.445a2.211 2.211 0 0 1-2.2 2.222c-1.215 0-2.2-.995-2.2-2.223 0-1.227.985-2.222 2.2-2.222 1.215 0 2.2.995 2.2 2.223Z"/><path fill-rule="evenodd" d="M13.233 3.682a5.698 5.698 0 0 1 6.553-1.1l-3.197 3.22a.887.887 0 0 0 0 1.25l1.4 1.41a.858.858 0 0 0 1.242 0l3.198-3.22c1.03 2.156.669 4.807-1.101 6.59a5.68 5.68 0 0 1-1.702 1.18 5.567 5.567 0 0 1 1.174 3.432c0 3.069-2.462 5.556-5.5 5.556-2.386 0-4.418-1.535-5.18-3.682l-1.872 1.886a2.29 2.29 0 0 1-3.268 0 2.329 2.329 0 0 1 0-3.29l6.976-7.033a5.8 5.8 0 0 1 1.277-6.2ZM15.3 20.889c2.43 0 4.4-1.99 4.4-4.445C19.7 13.99 17.73 12 15.3 12c-2.43 0-4.4 1.99-4.4 4.444 0 2.455 1.97 4.445 4.4 4.445Z" clip-rule="evenodd"/><path d="M5.39 4.531h3.385V3.42c0-.272.304-.414.479-.217l1.566 1.724a.34.34 0 0 1 0 .438L9.254 7.09c-.175.198-.479.062-.479-.216V5.767H5.39c-.31 0-.564-.278-.564-.618 0-.34.254-.618.564-.618ZM2.652 10.795 1.08 9.072a.331.331 0 0 1 0-.433l1.572-1.723c.174-.198.479-.062.479.216v1.106h3.385c.31 0 .563.278.563.618 0 .34-.253.617-.563.617H3.131v1.106c0 .278-.304.414-.48.216Z"/></svg>