<svg xmlns="http://www.w3.org/2000/svg" width="24" height="24"><path d="M4.777 18.139c-.989-1.453-.681-3.439.565-4.685l2.435-2.434a1.123 1.123 0 0 0 0-1.578 1.123 1.123 0 0 0-1.579 0l-2.351 2.351c-2.169 2.168-2.518 5.69-.566 8.057a5.87 5.87 0 0 0 8.69.432l2.535-2.534a1.123 1.123 0 0 0 0-1.578 1.123 1.123 0 0 0-1.579 0l-2.534 2.533a3.654 3.654 0 0 1-5.616-.564Zm5.533-2.841 4.986-4.984a1.178 1.178 0 0 0 0-1.662 1.179 1.179 0 0 0-1.662 0L8.65 13.637a1.178 1.178 0 0 0 0 1.66 1.178 1.178 0 0 0 1.661 0ZM11.79 3.85 9.44 6.202a1.123 1.123 0 0 0 0 1.579 1.124 1.124 0 0 0 1.578 0l2.435-2.434c1.246-1.247 3.231-1.554 4.685-.566a3.652 3.652 0 0 1 .565 5.615l-2.534 2.534a1.123 1.123 0 0 0 0 1.578 1.123 1.123 0 0 0 1.578 0l2.534-2.533a5.882 5.882 0 0 0-.423-8.697c-2.367-1.952-5.898-1.595-8.067.573Z"/></svg>