<svg width="24" height="24" xmlns="http://www.w3.org/2000/svg"><path d="M3.111 13.6c.611 0 1.111-.495 1.111-1.1 0-.605-.5-1.1-1.11-1.1C2.5 11.4 2 11.895 2 12.5c0 .605.5 1.1 1.111 1.1Zm0 4.4c.611 0 1.111-.495 1.111-1.1 0-.605-.5-1.1-1.11-1.1C2.5 15.8 2 16.295 2 16.9c0 .605.5 1.1 1.111 1.1Zm0-8.8c.611 0 1.111-.495 1.111-1.1 0-.605-.5-1.1-1.11-1.1C2.5 7 2 7.495 2 8.1c0 .605.5 1.1 1.111 1.1Zm4.445 4.4h13.333c.611 0 1.111-.495 1.111-1.1 0-.605-.5-1.1-1.111-1.1H7.556c-.612 0-1.112.495-1.112 1.1 0 .605.5 1.1 1.112 1.1Zm0 4.4h13.333C21.5 18 22 17.505 22 16.9c0-.605-.5-1.1-1.111-1.1H7.556c-.612 0-1.112.495-1.112 1.1 0 .605.5 1.1 1.112 1.1ZM6.444 8.1c0 .605.5 1.1 1.112 1.1h13.333C21.5 9.2 22 8.705 22 8.1c0-.605-.5-1.1-1.111-1.1H7.556c-.612 0-1.112.495-1.112 1.1Zm-3.333 5.5c.611 0 1.111-.495 1.111-1.1 0-.605-.5-1.1-1.11-1.1C2.5 11.4 2 11.895 2 12.5c0 .605.5 1.1 1.111 1.1Zm0 4.4c.611 0 1.111-.495 1.111-1.1 0-.605-.5-1.1-1.11-1.1C2.5 15.8 2 16.295 2 16.9c0 .605.5 1.1 1.111 1.1Zm0-8.8c.611 0 1.111-.495 1.111-1.1 0-.605-.5-1.1-1.11-1.1C2.5 7 2 7.495 2 8.1c0 .605.5 1.1 1.111 1.1Zm4.445 4.4h13.333c.611 0 1.111-.495 1.111-1.1 0-.605-.5-1.1-1.111-1.1H7.556c-.612 0-1.112.495-1.112 1.1 0 .605.5 1.1 1.112 1.1Zm0 4.4h13.333C21.5 18 22 17.505 22 16.9c0-.605-.5-1.1-1.111-1.1H7.556c-.612 0-1.112.495-1.112 1.1 0 .605.5 1.1 1.112 1.1ZM6.444 8.1c0 .605.5 1.1 1.112 1.1h13.333C21.5 9.2 22 8.705 22 8.1c0-.605-.5-1.1-1.111-1.1H7.556c-.612 0-1.112.495-1.112 1.1Z"/></svg>