<svg xmlns="http://www.w3.org/2000/svg" width="24" height="24"><path fill-rule="evenodd" d="M20.038 11.136h1.55c.227 0 .412.185.412.413v.902a.412.412 0 0 1-.412.412h-1.55c-.4 3.757-3.418 6.774-7.174 7.175v1.55a.412.412 0 0 1-.413.412h-.902a.412.412 0 0 1-.412-.412v-1.55c-3.757-.4-6.774-3.418-7.175-7.174h-1.55A.412.412 0 0 1 2 12.45v-.902c0-.228.185-.412.412-.412h1.55c.4-3.757 3.418-6.774 7.175-7.175v-1.55c0-.227.184-.412.412-.412h.902c.228 0 .412.185.412.412v1.55c3.757.4 6.774 3.418 7.175 7.175ZM7.545 12.451a.412.412 0 0 1-.412.413H5.794a6.284 6.284 0 0 0 5.342 5.342v-1.339c0-.227.185-.412.413-.412h.902c.228 0 .412.185.412.412v1.339a6.284 6.284 0 0 0 5.342-5.342h-1.338a.413.413 0 0 1-.413-.413v-.902c0-.228.185-.412.412-.412h1.34a6.284 6.284 0 0 0-5.343-5.342v1.338a.413.413 0 0 1-.412.413h-.903a.413.413 0 0 1-.412-.413V5.795a6.284 6.284 0 0 0-5.342 5.342h1.339c.228 0 .412.184.412.412v.902Z" clip-rule="evenodd"/></svg>