<svg xmlns="http://www.w3.org/2000/svg" width="24" height="24"><path d="M7 16.748a1.086 1.086 0 0 0 2.171 0v-2.886c0-.354-.022-.748-.066-1.18a54.292 54.292 0 0 0-.241-2.469.035.035 0 0 1 .068-.015l.848 2.551 1.298 3.513a.956.956 0 0 0 1.794 0l1.3-3.513.862-2.55a.036.036 0 0 1 .07.014 44.15 44.15 0 0 1-.127 1.14l-.132 1.33c-.033.431-.049.825-.049 1.18v2.868a1.102 1.102 0 1 0 2.204 0v-8.19a1.54 1.54 0 0 0-2.993-.512l-1.333 3.79c-.11.31-.213.636-.312.98-.085.333-.18.66-.286.982a.045.045 0 0 1-.086 0c-.106-.322-.207-.65-.303-.982-.098-.344-.202-.67-.312-.98l-1.358-3.79A1.554 1.554 0 0 0 7 8.555v8.194Z"/><path fill-rule="evenodd" d="M2 5.333A3.333 3.333 0 0 1 5.333 2h13.334A3.333 3.333 0 0 1 22 5.333v13.334A3.333 3.333 0 0 1 18.667 22H5.333A3.333 3.333 0 0 1 2 18.667V5.333Zm3.333-1.25h13.334c.69 0 1.25.56 1.25 1.25v13.334c0 .69-.56 1.25-1.25 1.25H5.333c-.69 0-1.25-.56-1.25-1.25V5.333c0-.69.56-1.25 1.25-1.25Z" clip-rule="evenodd"/></svg>