<svg xmlns="http://www.w3.org/2000/svg" width="24" height="24"><path d="M4.283 21.741A.796.796 0 0 1 4 21.137c0-.23.094-.432.283-.605l5.512-5.036c.504-.46.84-.882 1.008-1.266.168-.383.252-.95.252-1.698V4.906L8.882 6.892a.95.95 0 0 1-.662.26.95.95 0 0 1-.66-.26.796.796 0 0 1-.284-.604c0-.23.094-.432.283-.605l3.78-3.453a.782.782 0 0 1 .314-.187C11.758 2.014 11.874 2 12 2c.126 0 .242.014.347.043.104.029.21.091.314.187l3.78 3.453a.796.796 0 0 1 .283.605c0 .23-.094.431-.283.604a.95.95 0 0 1-.661.26.95.95 0 0 1-.662-.26l-2.173-1.986v7.626c0 .749.084 1.315.252 1.698.168.384.504.806 1.008 1.266l5.511 5.036a.795.795 0 0 1 .284.605c0 .23-.095.431-.284.604a.95.95 0 0 1-.66.259.95.95 0 0 1-.662-.259L12 15.899l-6.394 5.842a.95.95 0 0 1-.661.259.95.95 0 0 1-.662-.259Z"/></svg>