<svg width="24" height="24" xmlns="http://www.w3.org/2000/svg"><path d="M15.766 4.523a.466.466 0 0 0-.396.234l-.067.152L10.3 16.75c-.154.296-.25.62-.25.977 0 1.128.868 2.043 1.94 2.043.927 0 1.709-.692 1.892-1.616l.01-.031 2.356-13.09a.491.491 0 0 0-.483-.509ZM2.403 9.666a1.312 1.312 0 0 0 1.825.091c2.665-2.297 6.025-3.232 9.25-2.805l1.149-2.724c-4.2-.793-8.651.305-12.137 3.303-.618.54-.657 1.535-.087 2.135ZM21.598 9.666c.57-.6.53-1.596-.097-2.135a14.687 14.687 0 0 0-4.287-2.571l-.511 2.866a12.12 12.12 0 0 1 3.06 1.921c.56.468 1.342.437 1.835-.081Z"/></svg>