<svg width="24" height="24" xmlns="http://www.w3.org/2000/svg"><path d="M13.222 19.917c4.275 0 7.741-3.545 7.741-7.917s-3.466-7.917-7.74-7.917c-3.941 0-7.194 3.012-7.68 6.907h4.14l1.25-3.227c.408-1.052 1.88-1.005 2.222.07l1.714 5.371.34-1.315c.137-.53.606-.9 1.142-.9h1.964a1.03 1.03 0 0 1 1.018 1.042 1.03 1.03 0 0 1-1.018 1.042H17.01l-.912 3.531c-.301 1.165-1.9 1.211-2.266.066l-1.878-5.885-.59 1.525c-.18.46-.615.763-1.1.763H2.02A1.03 1.03 0 0 1 1 12.031a1.03 1.03 0 0 1 1.019-1.041h1.475C3.989 5.94 8.156 2 13.222 2 18.622 2 23 6.477 23 12s-4.378 10-9.778 10c-4.257 0-7.879-2.783-9.221-6.667h2.198c1.23 2.707 3.912 4.584 7.023 4.584Z"/></svg>