<svg xmlns="http://www.w3.org/2000/svg" width="24" height="24"><path d="M10.61 9.22h2.78c.259 0 .463-.204.463-.464V6.44h1.659c.417 0 .62-.5.324-.787l-3.512-3.513a.459.459 0 0 0-.658 0L8.153 5.652a.463.463 0 0 0 .334.787h1.659v2.317c0 .26.204.464.463.464Zm-1.854.926H6.439V8.487c0-.417-.5-.62-.788-.324L2.14 11.676a.459.459 0 0 0 0 .658l3.512 3.512a.463.463 0 0 0 .788-.334v-1.658h2.317c.26 0 .463-.204.463-.464v-2.78a.459.459 0 0 0-.463-.464Zm13.113 1.53-3.512-3.513a.464.464 0 0 0-.797.324v1.66h-2.317a.459.459 0 0 0-.463.463v2.78c0 .26.204.464.463.464h2.317v1.659c0 .417.5.62.788.324l3.512-3.513a.456.456 0 0 0 .01-.648Zm-8.48 3.104h-2.78a.459.459 0 0 0-.463.464v2.317H8.487c-.417 0-.62.5-.324.788l3.512 3.512a.459.459 0 0 0 .658 0l3.512-3.512a.463.463 0 0 0-.324-.788h-1.668v-2.317a.459.459 0 0 0-.463-.464Z"/></svg>