<svg width="24" height="24" xmlns="http://www.w3.org/2000/svg"><path fill-rule="evenodd" clip-rule="evenodd" d="M18.816 5.315h-3.862a.378.378 0 0 1-.375-.381c0-.21.168-.38.375-.38h3.862c1.365 0 2.471 1.192 2.471 2.664v9.138c0 1.472-1.106 2.665-2.471 2.665h-3.862a.378.378 0 0 1-.375-.38c0-.21.168-.381.375-.381h3.862c.975 0 1.765-.853 1.765-1.904V7.218c0-1.051-.79-1.903-1.765-1.903Z"/><path d="M9.547 2a1.69 1.69 0 0 1 1.677 1.702v1.702c0 .94-.75 1.702-1.677 1.702h-5.87A1.69 1.69 0 0 1 2 5.404V3.702C2 2.762 2.75 2 3.677 2h5.87Z"/><path fill-rule="evenodd" clip-rule="evenodd" d="M11.224 10.51c0-.94-.75-1.701-1.677-1.701h-5.87A1.69 1.69 0 0 0 2 10.51v1.702c0 .94.75 1.702 1.677 1.702h5.87a1.69 1.69 0 0 0 1.677-1.702V10.51Zm-1.677 0h-5.87v1.703h5.87V10.51ZM9.547 15.617a1.69 1.69 0 0 1 1.677 1.702v1.702c0 .94-.75 1.702-1.677 1.702h-5.87A1.69 1.69 0 0 1 2 19.021V17.32c0-.94.75-1.702 1.677-1.702h5.87Zm-5.87 1.702h5.87v1.702h-5.87V17.32Z"/><path d="M14.954 3.83c-.601 0-1.088.494-1.088 1.104 0 .61.487 1.104 1.088 1.104h3.862c.54 0 1.052.486 1.052 1.18v9.138c0 .694-.511 1.18-1.052 1.18h-2.26l.714-.783a.961.961 0 0 0 0-1.28.84.84 0 0 0-1.256 0l-2.845 3.123 2.845 3.122a.84.84 0 0 0 1.256 0 .961.961 0 0 0 0-1.28l-.632-.693h2.178c1.798 0 3.184-1.56 3.184-3.389V7.218c0-1.83-1.386-3.388-3.184-3.388h-3.862Z"/></svg>