<svg xmlns="http://www.w3.org/2000/svg" width="24" height="24"><path d="m22.676 6.466-.068-.069a1.091 1.091 0 0 0-1.59.046l-2.492 2.806C16.182 6.603 12.923 5 9.24 5c-2.858 0-5.523.996-7.718 2.634a1.106 1.106 0 0 0-.126 1.66l.069.07c.377.377.983.446 1.406.125 1.818-1.374 4.002-2.198 6.37-2.198 3.132 0 5.82 1.443 7.74 3.71l-3.293 3.71-3.762-3.767a1.137 1.137 0 0 0-1.612 0l-6.998 7.02a1.1 1.1 0 0 0 0 1.546l.172.172c.423.424 1.12.424 1.543 0l6.083-6.104 3.717 3.722c.468.47 1.223.447 1.657-.046l3.831-4.306a13.95 13.95 0 0 1 1.51 4.272c.09.538.537.939 1.086.939h.102a1.1 1.1 0 0 0 1.075-1.306 15.97 15.97 0 0 0-2.16-5.726l2.79-3.15c.388-.435.365-1.099-.047-1.511Z"/></svg>