<svg width="24" height="24" xmlns="http://www.w3.org/2000/svg"><path fill-rule="evenodd" clip-rule="evenodd" d="M3.667 2C2.747 2 2 2.746 2 3.667v16.666C2 21.253 2.746 22 3.667 22h16.666c.92 0 1.667-.746 1.667-1.667V3.667C22 2.747 21.254 2 20.333 2H3.667Zm8.822 6.431c0-.46.373-.833.833-.833h1.269c.46 0 .833.373.833.833v7.138c0 .46-.373.833-.833.833h-1.269a.833.833 0 0 1-.833-.833V8.43Zm-3.913 0c0-.46.373-.833.833-.833h1.268c.46 0 .834.373.834.833v7.138c0 .46-.373.833-.834.833H9.41a.833.833 0 0 1-.833-.833V8.43Z"/></svg>