<svg width="24" height="24" xmlns="http://www.w3.org/2000/svg"><path d="M15.777 3.917v-.959c0-.527.408-.958.906-.958.498 0 .906.431.906.958v.959h.906c.997 0 1.812.862 1.812 1.917v2.875H5.812v9.584c0 .527.408.959.906.959h7.066c-.254.507-.254 1.353-.254 1.916H5.812C4.806 21.168 4 20.306 4 19.252l.01-13.418c0-1.055.796-1.917 1.802-1.917h.906v-.959c0-.527.408-.958.906-.958.498 0 .906.431.906.958v.959h7.247Z"/><path d="M16.883 9.4c-1.983 0-3.638 1.452-4.03 3.387-.125.619.383 1.095.931 1.095h.326c.573 0 .975-.494 1.17-.947.274-.637.892-1.083 1.603-1.083.963 0 1.753.819 1.753 1.818 0 .787-.49 1.177-1.152 1.703l-.03.024c-.663.528-1.435 1.168-1.677 2.466-.115.618.395 1.093.942 1.093h.327c.573 0 .974-.493 1.152-.962.134-.353.361-.654.64-.944.178-.184.364-.353.558-.528.12-.108.242-.22.367-.338C20.398 15.58 21 14.857 21 13.67c0-2.36-1.843-4.27-4.117-4.27ZM16.72 19.548c-.563 0-1.02.473-1.02 1.057v.338c0 .584.457 1.057 1.02 1.057h.326c.562 0 1.019-.473 1.019-1.057v-.338c0-.584-.457-1.057-1.02-1.057h-.326Z"/></svg>