<svg width="24" height="24" xmlns="http://www.w3.org/2000/svg"><path d="M6.457 19.84c-.766-.362-1.067-1.224-.672-1.926l7.395-13.14c.395-.701 1.336-.977 2.102-.615.766.363 1.067 1.225.671 1.927L8.56 19.226c-.395.701-1.336.977-2.102.614ZM11.828 16.997h9.568c.886 0 1.604-.659 1.604-1.47 0-.813-.718-1.471-1.604-1.471h-7.878l-1.69 2.94ZM16.07 9.615h5.326c.886 0 1.604-.658 1.604-1.47 0-.813-.718-1.47-1.604-1.47H17.76l-1.69 2.94Z"/><path d="m12.921 6.674-1.69 2.94H2.604C1.718 9.615 1 8.958 1 8.145c0-.812.718-1.47 1.604-1.47h10.317ZM8.679 14.056l-1.69 2.94H2.603c-.886 0-1.604-.657-1.604-1.47 0-.812.718-1.47 1.604-1.47H8.68Z"/></svg>