<svg width="24" height="24" xmlns="http://www.w3.org/2000/svg"><path d="M18.085 15.846v-5.128c0-3.149-1.662-5.785-4.56-6.482v-.698c0-.85-.69-1.538-1.531-1.538s-1.51.687-1.51 1.538v.698c-2.909.697-4.56 3.323-4.56 6.482v5.128L4.605 17.17c-.639.646-.193 1.754.71 1.754h13.346c.902 0 1.358-1.108.72-1.754l-1.297-1.323ZM11.994 22c1.115 0 2.027-.923 2.027-2.051H9.967c0 1.128.902 2.051 2.027 2.051ZM6.704 4.287c.425-.39.435-1.056.03-1.466A1.004 1.004 0 0 0 5.325 2.8a10.73 10.73 0 0 0-3.314 6.215 1.033 1.033 0 0 0 1.014 1.19c.486 0 .912-.359.993-.851a8.688 8.688 0 0 1 2.686-5.067ZM18.693 2.8a1.016 1.016 0 0 0-1.419.02 1.015 1.015 0 0 0 .03 1.457 8.745 8.745 0 0 1 2.686 5.067c.071.492.497.85.993.85.619 0 1.105-.563 1.004-1.189A10.795 10.795 0 0 0 18.693 2.8Z"/></svg>