<svg width="24" height="24" xmlns="http://www.w3.org/2000/svg"><path d="M12 22c1.16 0 2.11-.923 2.11-2.051H9.89c0 1.128.939 2.051 2.11 2.051Zm7.688-4.83-1.36-1.324v-5.128c0-3.149-1.73-5.785-4.746-6.482v-.698C13.582 2.688 12.875 2 12 2c-.875 0-1.582.687-1.582 1.538v.698c-3.026.697-4.745 3.323-4.745 6.482v5.128l-1.36 1.323c-.665.646-.2 1.754.738 1.754h13.888c.95 0 1.413-1.108.749-1.754Zm-5.051-8.165c0 .318-.117.616-.317.862l-2.636 3.107h2.003c.528 0 .95.41.95.923a.932.932 0 0 1-.95.923h-2.931c-.77 0-1.392-.605-1.392-1.353v-.01c0-.319.116-.616.316-.862l2.636-3.108h-2.003a.932.932 0 0 1-.95-.923c0-.513.423-.923.95-.923h2.931c.77 0 1.393.605 1.393 1.364Z"/></svg>