<svg width="24" height="24" xmlns="http://www.w3.org/2000/svg"><g clip-path="url(#a)"><path fill-rule="evenodd" clip-rule="evenodd" d="M19.9 18.132A9.957 9.957 0 0 0 22 12c0-5.523-4.477-10-10-10-2.31 0-4.439.784-6.132 2.1L4.65 2.884a1.25 1.25 0 0 0-1.767 1.768L4.1 5.868A9.957 9.957 0 0 0 2 12c0 5.523 4.477 10 10 10 2.31 0 4.439-.784 6.132-2.1l1.2 1.2a1.25 1.25 0 1 0 1.767-1.769l-1.2-1.199Zm-1.79-1.789A7.496 7.496 0 0 0 7.657 5.889l10.455 10.454Zm-1.767 1.768L5.889 7.657a7.496 7.496 0 0 0 10.454 10.454Z"/></g><defs><clipPath id="a"><path d="M0 0h24v24H0z"/></clipPath></defs></svg>