<svg width="24" height="24" xmlns="http://www.w3.org/2000/svg"><path d="M4.286 14.571A1.29 1.29 0 0 0 3 15.857v3.857A1.29 1.29 0 0 0 4.286 21h3.857a1.29 1.29 0 0 0 1.286-1.286 1.29 1.29 0 0 0-1.286-1.285H5.57v-2.572a1.29 1.29 0 0 0-1.285-1.286Zm0-5.142A1.29 1.29 0 0 0 5.57 8.143V5.57h2.572a1.29 1.29 0 0 0 1.286-1.285A1.29 1.29 0 0 0 8.143 3H4.286A1.29 1.29 0 0 0 3 4.286v3.857a1.29 1.29 0 0 0 1.286 1.286Zm14.143 9h-2.572a1.29 1.29 0 0 0-1.286 1.285A1.29 1.29 0 0 0 15.857 21h3.857A1.29 1.29 0 0 0 21 19.714v-3.857a1.29 1.29 0 0 0-1.286-1.286 1.29 1.29 0 0 0-1.285 1.286v2.572ZM14.57 4.286a1.29 1.29 0 0 0 1.286 1.285h2.572v2.572a1.29 1.29 0 0 0 1.285 1.286A1.29 1.29 0 0 0 21 8.143V4.286A1.29 1.29 0 0 0 19.714 3h-3.857a1.29 1.29 0 0 0-1.286 1.286Z"/></svg>