<svg xmlns="http://www.w3.org/2000/svg" width="24" height="24"><path d="M15.333 2a2.5 2.5 0 0 0-2.5 2.5v4.167a2.5 2.5 0 0 0 2.5 2.5H19.5a2.5 2.5 0 0 0 2.5-2.5V4.5A2.5 2.5 0 0 0 19.5 2h-4.167Z"/><path fill-rule="evenodd" d="M2 15.333a2.5 2.5 0 0 1 2.5-2.5h4.167a2.5 2.5 0 0 1 2.5 2.5V19.5a2.5 2.5 0 0 1-2.5 2.5H4.5A2.5 2.5 0 0 1 2 19.5v-4.167Zm2.5-.833h4.167c.46 0 .833.373.833.833V19.5c0 .46-.373.833-.833.833H4.5a.833.833 0 0 1-.833-.833v-4.167c0-.46.373-.833.833-.833Z" clip-rule="evenodd"/><path d="M4.778 5.866c.619-.45 1.314-.533 1.706-.533h1.837l-1.09-1.09A.833.833 0 0 1 8.41 3.065l2.218 2.218a1.25 1.25 0 0 1 0 1.768L8.423 9.256a.833.833 0 1 1-1.179-1.179L8.321 7H6.484c-.203 0-.5.05-.725.213-.176.129-.426.41-.426 1.147v1.973a.833.833 0 1 1-1.666 0V8.36c0-1.193.445-2.009 1.111-2.494ZM17.516 18.667c.392 0 1.087-.083 1.706-.533.666-.485 1.111-1.301 1.111-2.494v-1.973a.833.833 0 1 0-1.666 0v1.973c0 .738-.25 1.018-.426 1.147-.225.164-.522.213-.725.213h-1.837l1.077-1.077a.833.833 0 1 0-1.179-1.179l-2.205 2.205a1.25 1.25 0 0 0 0 1.768l2.218 2.218a.833.833 0 0 0 1.178-1.178l-1.09-1.09h1.838Z"/></svg>