<svg xmlns="http://www.w3.org/2000/svg" width="23" height="23"><path fill-rule="evenodd" d="M16.555 2.513a1.75 1.75 0 0 0-2.475 0l-3.314 3.313a.25.25 0 0 1-.123.068L6.088 6.906a1.75 1.75 0 0 0-1.312 1.263L2.058 18.497a1.75 1.75 0 0 0 .455 1.683l.364.364a1.75 1.75 0 0 0 1.791.423l9.746-3.249a1.75 1.75 0 0 0 1.155-1.28l1.021-4.598a.251.251 0 0 1 .067-.122l3.314-3.314a1.75 1.75 0 0 0 0-2.475l-3.416-3.416Zm-1.414 1.06a.25.25 0 0 1 .353 0l3.417 3.417a.25.25 0 0 1 0 .353l-2.761 2.761-3.77-3.77 2.76-2.76ZM11.21 7.286c-.078.03-.159.054-.241.072L6.414 8.37a.25.25 0 0 0-.188.18l-2.59 9.84 4.093-4.092a2.415 2.415 0 1 1 1.06 1.061l-3.98 3.98 9.13-3.044a.25.25 0 0 0 .165-.183l1.022-4.597c.018-.082.042-.163.072-.241L11.21 7.286Z" clip-rule="evenodd"/></svg>