<svg width="24" height="24" xmlns="http://www.w3.org/2000/svg"><path d="M11.087 10.148c-2.71 0-4.901-.416-6.575-1.248C2.837 8.07 2 7.127 2 6.074c0-1.07.837-2.016 2.512-2.839C6.186 2.412 8.378 2 11.087 2c2.71 0 4.901.412 6.575 1.235 1.675.823 2.512 1.77 2.512 2.84 0 1.052-.837 1.994-2.512 2.825-1.674.832-3.866 1.248-6.575 1.248ZM10.332 20.321a5.839 5.839 0 0 1-1.538-2.684 28.35 28.35 0 0 1-.521-.066 16.266 16.266 0 0 1-2.979-.688c-.934-.314-1.716-.713-2.347-1.197C2.316 15.203 2 14.63 2 13.968v2.546c0 1.052.9 1.952 2.7 2.699 1.614.67 3.492 1.039 5.632 1.108ZM9.783 12.642a5.83 5.83 0 0 0-1.08 2.47c-1.478-.167-2.812-.498-4.002-.992C2.9 13.374 2 12.474 2 11.421V8.875c0 .662.316 1.235.947 1.719.63.484 1.413.883 2.347 1.197.934.314 1.927.543 2.979.687.532.073 1.036.128 1.51.164Z"/><path fill-rule="evenodd" clip-rule="evenodd" d="M19.866 16.583c0 .184-.015.358-.035.531l1.075.894a.285.285 0 0 1 .06.347l-1.018 1.874c-.061.119-.194.168-.311.119l-1.269-.542c-.265.211-.55.396-.861.531l-.194 1.436a.254.254 0 0 1-.25.227h-2.037a.254.254 0 0 1-.25-.227l-.194-1.436a3.674 3.674 0 0 1-.861-.53l-1.269.54a.25.25 0 0 1-.31-.118l-1.02-1.874a.285.285 0 0 1 .061-.347l1.076-.894a4.56 4.56 0 0 1-.036-.53c0-.18.015-.358.036-.532l-1.076-.893a.278.278 0 0 1-.06-.347l1.018-1.874c.062-.12.194-.168.311-.12l1.269.542c.265-.21.55-.395.861-.53l.194-1.436a.254.254 0 0 1 .25-.227h2.038c.127 0 .234.097.25.227l.193 1.436c.31.135.596.314.861.53l1.269-.541a.25.25 0 0 1 .31.119l1.02 1.874a.285.285 0 0 1-.061.347l-1.075.893c.02.174.035.347.035.531Zm-5.605 0c0 1.046.8 1.896 1.784 1.896.983 0 1.783-.85 1.783-1.896 0-1.045-.8-1.895-1.783-1.895-.984 0-1.784.85-1.784 1.895Z"/></svg>