<svg width="24" height="24" xmlns="http://www.w3.org/2000/svg"><path fill-rule="evenodd" clip-rule="evenodd" d="m22.906 12.155-5.17 8.951a.662.662 0 0 1-.567.315H6.831a.662.662 0 0 1-.567-.315l-5.169-8.951a.572.572 0 0 1 0-.63l5.169-8.952a.662.662 0 0 1 .567-.315H17.17c.253 0 .442.126.568.315l5.169 8.952a.572.572 0 0 1 0 .63ZM12 6.34c-3.007 0-5.54 2.453-5.54 5.46s2.453 5.54 5.54 5.54c3.007 0 5.54-2.454 5.54-5.54 0-2.928-2.454-5.46-5.54-5.46Zm.02 9.093a3.593 3.593 0 1 0 0-7.186 3.593 3.593 0 0 0 0 7.186Z"/></svg>