<svg width="24" height="24" xmlns="http://www.w3.org/2000/svg"><path fill-rule="evenodd" clip-rule="evenodd" d="M4.433 17.169a1.433 1.433 0 0 1-1.88-.766l-.318-.757A1.438 1.438 0 0 1 3 13.763l1.378-.582a7.814 7.814 0 0 1-.036-2.336l-1.447-.59a1.438 1.438 0 0 1-.788-1.872l.309-.76a1.433 1.433 0 0 1 1.869-.79l1.397.569A7.796 7.796 0 0 1 7.384 5.63l-.553-1.315a1.438 1.438 0 0 1 .764-1.882l.755-.32a1.433 1.433 0 0 1 1.879.766l.54 1.283a7.768 7.768 0 0 1 2.47-.03l.502-1.234a1.433 1.433 0 0 1 1.869-.79l.759.31a1.438 1.438 0 0 1 .788 1.872l-.497 1.227a7.792 7.792 0 0 1 1.75 1.732l1.28-.54a1.433 1.433 0 0 1 1.878.765l.319.757a1.438 1.438 0 0 1-.764 1.883l-1.292.545a7.818 7.818 0 0 1-.006 2.505l1.239.505a1.438 1.438 0 0 1 .788 1.873l-.309.76a1.433 1.433 0 0 1-1.869.79l-1.288-.524a7.792 7.792 0 0 1-1.69 1.675l.573 1.36a1.438 1.438 0 0 1-.764 1.883l-.756.319a1.433 1.433 0 0 1-1.879-.766l-.585-1.391a7.77 7.77 0 0 1-2.36 0l-.591 1.456a1.433 1.433 0 0 1-1.87.79l-.759-.31a1.438 1.438 0 0 1-.788-1.872l.594-1.464a7.79 7.79 0 0 1-1.689-1.667l-1.39.588Zm-.747-1.245a.205.205 0 0 0 .269.11l2.324-.983.28.435a6.565 6.565 0 0 0 2.035 2.009l.438.274-.976 2.407a.206.206 0 0 0 .113.267l.759.31a.205.205 0 0 0 .267-.113l.975-2.403.507.112a6.546 6.546 0 0 0 2.848 0l.5-.111.978 2.322a.205.205 0 0 0 .269.11l.755-.32a.205.205 0 0 0 .109-.269l-.972-2.309.444-.278a6.564 6.564 0 0 0 2.036-2.016l.276-.43 2.217.903a.205.205 0 0 0 .267-.112l.309-.761a.205.205 0 0 0-.113-.268l-2.197-.895.121-.513a6.587 6.587 0 0 0 .01-2.978l-.115-.504 2.226-.941a.205.205 0 0 0 .11-.27l-.32-.756a.205.205 0 0 0-.268-.11l-2.221.94-.279-.44a6.566 6.566 0 0 0-2.09-2.07L15.138 6l.881-2.174a.206.206 0 0 0-.112-.267l-.76-.31a.205.205 0 0 0-.266.113l-.884 2.177-.505-.11a6.546 6.546 0 0 0-2.946.037l-.509.125-.94-2.233a.205.205 0 0 0-.268-.11l-.756.32a.205.205 0 0 0-.109.269l.946 2.245-.43.282A6.57 6.57 0 0 0 6.448 8.48l-.27.452-2.356-.96a.205.205 0 0 0-.267.113l-.31.76a.205.205 0 0 0 .114.268l1.896.773h.002l.477.194-.101.502c-.186.918-.18 1.88.045 2.828l.12.507-2.32.98a.206.206 0 0 0-.11.27l.32.756Z"/><path fill-rule="evenodd" clip-rule="evenodd" d="M8.531 15.435a4.935 4.935 0 0 0 5.497 1.008 4.89 4.89 0 0 0 2.578-2.747 4.902 4.902 0 0 0-.115-3.768 4.906 4.906 0 0 0-1.004-1.46A4.935 4.935 0 0 0 9.991 7.46a4.891 4.891 0 0 0-2.578 2.746 4.902 4.902 0 0 0 .114 3.768c.247.548.584 1.04 1.004 1.46Zm1.16-1.16a3.29 3.29 0 0 1 0-4.646 3.274 3.274 0 0 1 4.637 0 3.29 3.29 0 0 1 0 4.646 3.274 3.274 0 0 1-4.637 0Z"/><path d="M10.85 10.79a1.645 1.645 0 0 0 0 2.323c.64.642 1.678.642 2.318 0 .64-.641.64-1.681 0-2.323a1.637 1.637 0 0 0-2.318 0Z"/></svg>