<svg width="24" height="24" xmlns="http://www.w3.org/2000/svg"><g clip-path="url(#a)"><path d="M12.019 16.063c1.984 0 3.593-1.595 3.593-3.563 0-1.967-1.609-3.562-3.593-3.562-1.985 0-3.593 1.595-3.593 3.562 0 1.967 1.608 3.563 3.593 3.563Z"/><path fill-rule="evenodd" clip-rule="evenodd" d="M5.862 12.46c0 3.305 2.715 6.087 6.138 6.087 3.332 0 6.138-2.693 6.138-6.086 0-3.231-2.72-6.008-6.138-6.008-3.327 0-6.138 2.687-6.138 6.008ZM12 17.36c-2.75 0-4.94-2.24-4.94-4.9 0-2.642 2.252-4.82 4.94-4.82 2.756 0 4.94 2.246 4.94 4.82 0 2.727-2.258 4.9-4.94 4.9Z"/><path fill-rule="evenodd" clip-rule="evenodd" d="m17.736 21.688 5.17-8.875a.564.564 0 0 0 0-.626l-5.17-8.874A.663.663 0 0 0 17.17 3H6.831a.663.663 0 0 0-.567.313l-5.17 8.874a.564.564 0 0 0 0 .626l5.17 8.874A.663.663 0 0 0 6.83 22h10.338a.663.663 0 0 0 .567-.313Zm3.968-9.188-4.841-8.313H7.137L2.296 12.5l4.841 8.313h9.726l4.841-8.313Z"/></g><defs><clipPath id="a"><path d="M0 0h24v24H0z"/></clipPath></defs></svg>