<svg width="24" height="24" xmlns="http://www.w3.org/2000/svg"><g clip-path="url(#a)" fill-rule="evenodd" clip-rule="evenodd"><path d="M17.5 12c0 3.012-2.462 5.454-5.5 5.454S6.5 15.012 6.5 12c0-3.012 2.462-5.455 5.5-5.455S17.5 8.988 17.5 12Zm-1.833 0c0 2.008-1.642 3.636-3.667 3.636S8.333 14.008 8.333 12 9.975 8.364 12 8.364 15.667 9.992 15.667 12Z"/><path d="m22.905 12.329-5.169 9.342c-.126.197-.315.329-.567.329H6.831c-.252 0-.441-.132-.567-.329l-5.17-9.342a.62.62 0 0 1 0-.658l5.17-9.342C6.39 2.132 6.579 2 6.83 2h10.338c.252 0 .441.132.567.329l5.17 9.342a.62.62 0 0 1 0 .658Zm-6.436-8.51L20.996 12l-4.527 8.182H7.531L3.004 12 7.53 3.818h8.938Z"/></g><defs><clipPath id="a"><path d="M0 0h24v24H0z"/></clipPath></defs></svg>