<svg xmlns="http://www.w3.org/2000/svg" width="24" height="24"><path fill-rule="evenodd" d="M4 3.269C4 1.342 6.248.296 7.717 1.538l11.474 9.698c1.698 1.435.526 4.207-1.685 3.983l-1.1-.112 1.457 2.956a2.266 2.266 0 0 1-1.006 3.023l-3.292 1.67a2.258 2.258 0 0 1-3.047-1.018l-1.619-3.283L7.868 19.5C6.448 20.94 4 19.934 4 17.91V3.269Zm2.468-.248a.323.323 0 0 0-.53.248v14.64c0 .29.349.434.552.228l2.942-2.985 2.823 5.726c.08.162.275.227.435.146l3.292-1.67a.324.324 0 0 0 .144-.431l-3.007-6.1 4.582.465c.316.032.483-.364.24-.569L6.468 3.021Z" clip-rule="evenodd"/></svg>