<svg xmlns="http://www.w3.org/2000/svg" width="24" height="24"><path d="M2 18.667c0 .61.5 1.11 1.111 1.11h5.556v-2.221H3.11c-.611 0-1.111.5-1.111 1.11ZM2 5.333c0 .611.5 1.111 1.111 1.111h10V4.222h-10C2.5 4.222 2 4.722 2 5.333ZM13.111 20.89v-1.111h7.778c.611 0 1.111-.5 1.111-1.111s-.5-1.111-1.111-1.111H13.11v-1.112c0-.61-.5-1.11-1.111-1.11s-1.111.5-1.111 1.11v4.445c0 .611.5 1.111 1.111 1.111s1.111-.5 1.111-1.111ZM6.444 9.778v1.11H3.111C2.5 10.889 2 11.389 2 12c0 .611.5 1.111 1.111 1.111h3.333v1.111c0 .611.5 1.111 1.112 1.111.61 0 1.11-.5 1.11-1.11V9.777c0-.611-.5-1.111-1.11-1.111-.612 0-1.112.5-1.112 1.11ZM22 12c0-.611-.5-1.111-1.111-1.111h-10v2.222h10c.611 0 1.111-.5 1.111-1.111Zm-5.556-3.333c.612 0 1.112-.5 1.112-1.111V6.444h3.333c.611 0 1.111-.5 1.111-1.11 0-.612-.5-1.112-1.111-1.112h-3.333v-1.11c0-.612-.5-1.112-1.112-1.112-.61 0-1.11.5-1.11 1.111v4.445c0 .61.5 1.11 1.11 1.11Z"/></svg>