<svg width="24" height="24" xmlns="http://www.w3.org/2000/svg"><path fill-rule="evenodd" clip-rule="evenodd" d="M19.808 10.51c-.227-.405-.697-.564-1.145-.447-1.235.33-2.576-.207-3.244-1.397l-2.42-4.311.838-.498c.461-.274.62-.886.354-1.36a.957.957 0 0 0-1.322-.364L4.483 7.11c-.46.274-.62.886-.354 1.36a.957.957 0 0 0 1.323.365l.838-.498 2.42 4.311a3.048 3.048 0 0 1-.445 3.587c-.323.341-.424.838-.196 1.244l.063.112a.957.957 0 0 0 1.322.364l4.176-2.48 3.406 6.027a.957.957 0 0 0 1.322.364c.462-.273.621-.886.355-1.36l-3.406-6.026 4.21-2.499c.46-.274.62-.886.354-1.36l-.063-.112Z"/></svg>