<svg xmlns="http://www.w3.org/2000/svg" width="24" height="24"><path d="M4.222 10.889h4.445c1.222 0 2.222-1 2.222-2.222V4.222C10.889 3 9.889 2 8.667 2H4.222C3 2 2 3 2 4.222v4.445c0 1.222 1 2.222 2.222 2.222Zm0-6.667h4.445v4.445H4.222V4.222ZM4.222 22h4.445c1.222 0 2.222-1 2.222-2.222v-4.445c0-1.222-1-2.222-2.222-2.222H4.222C3 13.111 2 14.111 2 15.333v4.445C2 21 3 22 4.222 22Zm0-6.667h4.445v4.445H4.222v-4.445ZM13.111 4.222v4.445c0 1.222 1 2.222 2.222 2.222h4.445c1.222 0 2.222-1 2.222-2.222V4.222C22 3 21 2 19.778 2h-4.445c-1.222 0-2.222 1-2.222 2.222Zm6.667 4.445h-4.445V4.222h4.445v4.445ZM22 21.444v-1.11a.55.55 0 0 0-.556-.556h-1.11a.55.55 0 0 0-.556.555v1.111a.55.55 0 0 0 .555.556h1.111a.55.55 0 0 0 .556-.556ZM13.111 13.667v1.11a.55.55 0 0 0 .556.556h1.11a.55.55 0 0 0 .556-.555v-1.111a.55.55 0 0 0-.555-.556h-1.111a.55.55 0 0 0-.556.556ZM17 15.333h-1.111a.55.55 0 0 0-.556.556V17a.55.55 0 0 0 .556.556h1.11a.55.55 0 0 0 .556-.556v-1.111a.55.55 0 0 0-.555-.556ZM13.111 18.111v1.111a.55.55 0 0 0 .556.556h1.11a.55.55 0 0 0 .556-.556v-1.11a.55.55 0 0 0-.555-.556h-1.111a.55.55 0 0 0-.556.555ZM15.889 22h1.11a.55.55 0 0 0 .556-.556v-1.11a.55.55 0 0 0-.555-.556h-1.111a.55.55 0 0 0-.556.555v1.111a.55.55 0 0 0 .556.556ZM18.111 19.778h1.111a.55.55 0 0 0 .556-.556v-1.11a.55.55 0 0 0-.556-.556h-1.11a.55.55 0 0 0-.556.555v1.111a.55.55 0 0 0 .555.556ZM19.222 13.111h-1.11a.55.55 0 0 0-.556.556v1.11a.55.55 0 0 0 .555.556h1.111a.55.55 0 0 0 .556-.555v-1.111a.55.55 0 0 0-.556-.556ZM20.333 17.556h1.111A.55.55 0 0 0 22 17v-1.111a.55.55 0 0 0-.556-.556h-1.11a.55.55 0 0 0-.556.556V17a.55.55 0 0 0 .555.556Z"/></svg>