<svg width="24" height="24" xmlns="http://www.w3.org/2000/svg"><path d="M19.06 4.94c-2.04-2.037-4.93-3.211-8.109-2.886-4.592.462-8.37 4.186-8.884 8.773A9.983 9.983 0 0 0 11.99 22a9.986 9.986 0 0 0 9.022-5.699c.4-.837-.2-1.8-1.127-1.8-.463 0-.9.25-1.1.663-1.415 3.037-4.806 4.961-8.51 4.136-2.777-.612-5.017-2.874-5.605-5.649a7.504 7.504 0 0 1 7.32-9.148c2.077 0 3.929.863 5.28 2.225l-1.89 1.887c-.788.787-.237 2.137.877 2.137h4.492c.688 0 1.251-.562 1.251-1.25V5.016c0-1.113-1.351-1.675-2.14-.888l-.8.813Z"/></svg>