<svg width="24" height="24" xmlns="http://www.w3.org/2000/svg"><path d="M12.926 3.486v5.94l4.935-2.97c.682-.41 1.554-.166 1.948.545.393.71.16 1.62-.522 2.03L14.351 12l4.936 2.97c.682.41.915 1.319.522 2.03-.394.71-1.266.954-1.948.543l-4.935-2.97v5.94c0 .82-.638 1.486-1.426 1.486-.787 0-1.425-.665-1.425-1.486v-5.94l-4.936 2.97c-.682.41-1.554.167-1.948-.543-.393-.711-.16-1.62.522-2.03L8.65 12 3.713 9.03c-.682-.41-.915-1.32-.522-2.03.394-.711 1.266-.955 1.948-.544l4.936 2.97V3.486c0-.82.638-1.486 1.425-1.486.788 0 1.426.665 1.426 1.486Z"/></svg>