<svg width="24" height="24" xmlns="http://www.w3.org/2000/svg"><path d="M13.522 2.004C8.004 1.848 3.484 6.38 3.484 12.002h-1.94c-.488 0-.727.6-.38.944l3.025 3.11a.528.528 0 0 0 .77 0l3.024-3.11c.347-.344.097-.944-.38-.944h-1.95c0-4.333 3.446-7.832 7.696-7.776 4.032.055 7.425 3.532 7.48 7.665.053 4.344-3.361 7.887-7.589 7.887a7.36 7.36 0 0 1-4.64-1.644 1.059 1.059 0 0 0-1.43.089c-.456.478-.423 1.255.086 1.666A9.533 9.533 0 0 0 13.24 22c5.474 0 9.908-4.632 9.756-10.287-.14-5.21-4.39-9.565-9.474-9.71Zm-.553 5.554a.83.83 0 0 0-.813.834v4.088c0 .388.206.755.531.955l3.382 2.055a.81.81 0 0 0 1.117-.289.853.853 0 0 0-.282-1.144l-3.122-1.9V8.38a.82.82 0 0 0-.813-.822Z"/></svg>