<svg xmlns="http://www.w3.org/2000/svg" width="24" height="24"><path d="M5.602 8.44c-.527-.532-1.432-.44-1.788.22-.32.589-.573 1.19-.767 1.825-.218.728.355 1.444 1.1 1.444h.011c.493 0 .94-.324 1.077-.809a7.6 7.6 0 0 1 .55-1.352c.252-.427.172-.97-.183-1.328Zm-1.432 5.8h-.023c-.745 0-1.318.716-1.1 1.444a9.3 9.3 0 0 0 .756 1.825c.355.659 1.272.763 1.799.231a1.13 1.13 0 0 0 .194-1.328 7.162 7.162 0 0 1-.55-1.34 1.112 1.112 0 0 0-1.076-.832Zm3.265 6.955a8.953 8.953 0 0 0 1.821.762c.71.208 1.421-.37 1.421-1.109v-.035c0-.496-.32-.947-.802-1.086a6.934 6.934 0 0 1-1.317-.554 1.104 1.104 0 0 0-1.33.196l-.034.035c-.515.52-.412 1.433.24 1.79ZM12.98 3.922V3.16c0-1.028-1.237-1.548-1.96-.82L8.593 4.8a1.164 1.164 0 0 0 0 1.653l2.44 2.403c.722.716 1.948.196 1.948-.832V6.256c3.254.555 5.729 3.397 5.729 6.828a6.91 6.91 0 0 1-4.95 6.643c-.47.139-.779.59-.779 1.086v.024c0 .75.699 1.317 1.41 1.109 3.826-1.11 6.61-4.656 6.61-8.862 0-4.714-3.494-8.595-8.02-9.162Z"/></svg>