<svg xmlns="http://www.w3.org/2000/svg" width="24" height="24"><path d="m15.408 4.796-2.44-2.461c-.71-.717-1.948-.208-1.948.82v.763C6.506 4.484 3 8.367 3 13.082a9.23 9.23 0 0 0 6.61 8.875c.711.208 1.41-.37 1.41-1.11v-.034c0-.497-.31-.948-.78-1.086-2.863-.832-4.949-3.49-4.949-6.645 0-3.432 2.475-6.275 5.729-6.83V8.02c0 1.029 1.226 1.537 1.948.82l2.44-2.403c.458-.439.458-1.179 0-1.64Zm5.545 5.697a9.12 9.12 0 0 0-.756-1.837c-.355-.659-1.26-.763-1.787-.231l-.012.011a1.13 1.13 0 0 0-.194 1.34c.229.428.412.88.55 1.341.137.486.584.81 1.076.81h.023c.745 0 1.318-.717 1.1-1.434Zm-7.642 10.309v.023c0 .75.71 1.317 1.421 1.109a8.957 8.957 0 0 0 1.822-.763c.653-.358.756-1.27.229-1.802l-.023-.024a1.106 1.106 0 0 0-1.329-.196c-.424.243-.87.427-1.33.566-.469.139-.79.59-.79 1.087Zm5.087-3.063c.527.532 1.433.428 1.788-.231.32-.59.573-1.202.767-1.837.207-.717-.355-1.433-1.1-1.433h-.023c-.504 0-.939.323-1.076.809-.138.462-.321.912-.55 1.352-.241.439-.15.993.194 1.34Z"/></svg>