<svg xmlns="http://www.w3.org/2000/svg" width="24" height="24"><path d="M19.778 19.778H22V22h-2.222v-2.222Zm0-2.222H22v-2.223h-2.222v2.223ZM2 13.11h2.222V10.89H2v2.222Zm0 4.445h2.222v-2.223H2v2.223Zm0-8.89h2.222V6.445H2v2.223Zm0-4.444h2.222V2H2v2.222Zm4.444 0h2.223V2H6.444v2.222ZM15.334 22h2.222v-2.222h-2.223V22Zm-4.445 0h2.222v-2.222H10.89V22Zm4.444 0h2.223v-2.222h-2.223V22Zm-8.889 0h2.223v-2.222H6.444V22ZM2 22h2.222v-2.222H2V22ZM22 7.556A5.558 5.558 0 0 0 16.444 2H10.89v2.222h5.555c1.834 0 3.334 1.5 3.334 3.334v5.555H22V7.556Z"/></svg>