<svg width="24" height="24" xmlns="http://www.w3.org/2000/svg"><path d="M19.778 13.111v5.556c0 .61-.5 1.11-1.111 1.11H5.333c-.61 0-1.11-.5-1.11-1.11V13.11c0-.611-.5-1.111-1.112-1.111C2.5 12 2 12.5 2 13.111v6.667C2 21 3 22 4.222 22h15.556C21 22 22 21 22 19.778V13.11C22 12.5 21.5 12 20.889 12s-1.111.5-1.111 1.111Zm-6.667-.367 2.089-2.088a1.106 1.106 0 0 1 1.567 0 1.106 1.106 0 0 1 0 1.566l-3.99 3.99a1.107 1.107 0 0 1-1.566 0l-3.989-3.99a1.106 1.106 0 0 1 0-1.566 1.106 1.106 0 0 1 1.567 0l2.1 2.088V3.111C10.889 2.5 11.389 2 12 2s1.111.5 1.111 1.111v9.633Z"/></svg>