<svg xmlns="http://www.w3.org/2000/svg" width="24" height="24"><path d="M4.222 22a2.143 2.143 0 0 1-1.57-.652A2.143 2.143 0 0 1 2 19.778V4.222c0-.61.217-1.134.652-1.57A2.143 2.143 0 0 1 4.222 2H16.64a2.198 2.198 0 0 1 1.555.639l3.167 3.167A2.198 2.198 0 0 1 22 7.362v12.416c0 .61-.217 1.134-.652 1.57a2.143 2.143 0 0 1-1.57.652H4.222ZM19.778 7.389 16.61 4.222H4.222v15.556h15.556V7.388ZM12 18.667c.926 0 1.713-.324 2.361-.973.648-.648.972-1.435.972-2.36 0-.927-.324-1.714-.972-2.362C13.713 12.324 12.926 12 12 12c-.926 0-1.713.324-2.361.972-.648.648-.972 1.435-.972 2.361 0 .926.324 1.713.972 2.361.648.649 1.435.973 2.361.973Zm-5.556-8.89h7.778c.315 0 .58-.106.792-.32.213-.212.32-.476.32-.79V6.444c0-.314-.107-.578-.32-.792a1.078 1.078 0 0 0-.792-.319H6.444c-.314 0-.578.107-.792.32a1.078 1.078 0 0 0-.319.791v2.223c0 .314.107.578.32.79.213.214.477.32.791.32ZM4.222 7.39v12.389V4.222 7.39Z"/></svg>