<svg xmlns="http://www.w3.org/2000/svg" width="24" height="24"><path d="M18.969 6.524A1.783 1.783 0 0 0 17.707 6h-9.93C6.792 6 6 6.8 6 7.778v12.444C6 21.2 6.8 22 7.778 22h12.444C21.2 22 22 21.2 22 20.222v-9.929c0-.47-.187-.924-.524-1.253l-2.507-2.516ZM14 20.222a2.663 2.663 0 0 1-2.667-2.666A2.663 2.663 0 0 1 14 14.889a2.663 2.663 0 0 1 2.667 2.667A2.663 2.663 0 0 1 14 20.222Zm.889-8.889H9.556c-.978 0-1.778-.8-1.778-1.777 0-.978.8-1.778 1.778-1.778h5.333c.978 0 1.778.8 1.778 1.778 0 .977-.8 1.777-1.778 1.777Z"/><path fill-rule="evenodd" d="M3 6.725C3 4.668 4.658 3 6.703 3h10.443c.471 0 .854.385.854.86 0 .474-.383.86-.854.86H6.703a2 2 0 0 0-1.994 2.005V19.14c0 .475-.383.86-.855.86A.857.857 0 0 1 3 19.14V6.725Z" clip-rule="evenodd"/></svg>