<svg width="24" height="24" xmlns="http://www.w3.org/2000/svg"><g clip-path="url(#a)"><path d="M18.211 2.656A2.229 2.229 0 0 0 16.633 2H4.223C2.988 2 2 3 2 4.222v15.556C2 21 3 22 4.222 22h15.556C21 22 22 21 22 19.778V7.367c0-.59-.233-1.156-.656-1.567l-3.133-3.144ZM12 19.778a3.329 3.329 0 0 1-3.333-3.334A3.329 3.329 0 0 1 12 13.111a3.329 3.329 0 0 1 3.333 3.333A3.329 3.329 0 0 1 12 19.778Zm1.111-11.111H6.444c-1.222 0-2.222-1-2.222-2.223 0-1.222 1-2.222 2.222-2.222h6.667c1.222 0 2.222 1 2.222 2.222 0 1.223-1 2.223-2.222 2.223Z"/></g><defs><clipPath id="a"><path d="M0 0h24v24H0z"/></clipPath></defs></svg>