<svg width="24" height="24" xmlns="http://www.w3.org/2000/svg"><path d="M14.037 3.889v-.945c0-.519.417-.944.926-.944.51 0 .926.425.926.944v.945h.926c1.018 0 1.852.85 1.852 1.889V8.61H3.852v9.445c0 .519.417.944.926.944h3.02c.163.665.406 1.298.719 1.889H3.852C2.824 20.889 2 20.039 2 19l.01-13.222c0-1.04.814-1.89 1.842-1.89h.926v-.944c0-.519.416-.944.926-.944.509 0 .926.425.926.944v.945h7.407ZM18.181 16.462l1.657-1.743a.282.282 0 0 1 .415.006l1.657 1.744c.19.194.06.531-.208.531H20.64c0 2.762-2.125 5-4.75 5a4.446 4.446 0 0 1-1.752-.356c-.398-.169-.505-.706-.202-1.025a.55.55 0 0 1 .618-.144c.41.181.867.275 1.336.275 1.965 0 3.563-1.681 3.563-3.75h-1.063c-.267 0-.398-.337-.208-.538Z"/><path d="M15.889 13.25c-1.965 0-3.563 1.681-3.563 3.75h1.063c.267 0 .398.337.214.531l-1.657 1.744a.284.284 0 0 1-.421 0l-1.657-1.744c-.19-.194-.06-.531.208-.531h1.063c0-2.762 2.125-5 4.75-5 .617 0 1.211.125 1.752.356.398.169.504.707.202 1.025a.55.55 0 0 1-.618.144 3.31 3.31 0 0 0-1.336-.275Z"/></svg>