<svg width="24" height="24" xmlns="http://www.w3.org/2000/svg"><path d="M14.702 3.739a.442.442 0 0 1 .376-.222c.257 0 .458.212.458.483l-2.238 12.436-.009.029c-.174.878-.917 1.535-1.798 1.535-1.018 0-1.843-.869-1.843-1.94 0-.339.091-.648.238-.928l4.752-11.248.064-.145ZM4.117 8.49a1.247 1.247 0 0 1-1.734-.088c-.541-.57-.504-1.515.083-2.027 3.31-2.849 7.54-3.891 11.53-3.138l-1.092 2.587C9.84 5.42 6.648 6.307 4.117 8.49ZM20.526 6.375c.596.512.633 1.458.092 2.027-.468.493-1.21.522-1.743.078a11.515 11.515 0 0 0-2.908-1.825l.487-2.723c1.449.56 2.825 1.371 4.072 2.443ZM20.449 20.97l-1.95-1.235-1.946 1.236c-.143.09-.32-.044-.283-.214l.517-2.328-1.72-1.564c-.128-.115-.06-.332.105-.348l2.267-.202.887-2.193a.185.185 0 0 1 .346 0l.887 2.193 2.267.202c.17.016.233.233.109.348l-1.72 1.564.517 2.328c.038.17-.14.305-.283.214Z"/></svg>