<svg width="24" height="24" xmlns="http://www.w3.org/2000/svg"><path fill-rule="evenodd" clip-rule="evenodd" d="M8.463 3.108A1.267 1.267 0 0 1 9.72 2h3.567c.628 0 1.173.465 1.256 1.108l.275 1.973c.302.152.59.325.867.517l1.805-.745.013-.005a1.265 1.265 0 0 1 1.553.578L20.84 8.6l.005.01c.281.529.183 1.222-.318 1.629l-.003.002-1.529 1.229a6.924 6.924 0 0 1 0 1.06l1.532 1.232c.501.406.599 1.099.318 1.629l-.005.009-1.785 3.174c-.309.57-.982.808-1.572.57l-.007-.002-1.795-.741c-.273.188-.56.363-.864.517l-.275 1.974A1.267 1.267 0 0 1 13.286 22H9.719a1.267 1.267 0 0 1-1.256-1.108l-.275-1.973a7.282 7.282 0 0 1-.867-.517l-1.805.745-.013.005a1.265 1.265 0 0 1-1.554-.578L2.165 15.4l-.005-.01c-.281-.529-.183-1.222.317-1.629l.003-.002 1.53-1.23a6.996 6.996 0 0 1 0-1.059l-1.53-1.23-.003-.002a1.299 1.299 0 0 1-.306-1.65L3.95 5.427c.31-.57.983-.808 1.573-.57l.007.002 1.795.741a7.61 7.61 0 0 1 .864-.517l.275-1.974Zm1.59.559-.357 2.567-.435.182a5.988 5.988 0 0 0-1.323.792l-.377.29-2.335-.964-1.465 2.605 1.992 1.602-.056.462A6.646 6.646 0 0 0 5.64 12c0 .255.023.52.057.797l.056.462-1.992 1.602 1.465 2.605 2.342-.967.378.3c.41.323.845.587 1.315.785l.435.182.358 2.567h2.897l.358-2.567.434-.182a5.986 5.986 0 0 0 1.324-.792l.376-.29 2.336.964 1.465-2.605-1.992-1.602.056-.462a6.52 6.52 0 0 0 .056-.797c0-.264-.022-.52-.056-.797l-.056-.462 1.992-1.602-1.465-2.605-2.342.967-.378-.3a5.648 5.648 0 0 0-1.316-.785l-.434-.182-.358-2.567h-2.897Zm1.45 5.958c-1.25 0-2.296 1.051-2.296 2.375s1.045 2.375 2.295 2.375 2.295-1.051 2.295-2.375-1.044-2.375-2.295-2.375ZM7.554 12c0-2.215 1.755-4.042 3.947-4.042S15.45 9.785 15.45 12c0 2.214-1.755 4.042-3.947 4.042S7.555 14.214 7.555 12Z"/></svg>