<svg width="24" height="24" xmlns="http://www.w3.org/2000/svg"><path d="M18.759 12.98c.039-.32.068-.64.068-.98 0-.34-.03-.66-.068-.98l2.06-1.65a.513.513 0 0 0 .118-.64l-1.954-3.46c-.117-.22-.38-.3-.596-.22l-2.431 1a7.098 7.098 0 0 0-1.65-.98l-.372-2.65a.48.48 0 0 0-.478-.42H9.549a.48.48 0 0 0-.479.42L8.7 5.07c-.597.25-1.144.59-1.651.98l-2.432-1a.471.471 0 0 0-.596.22L2.068 8.73a.5.5 0 0 0 .117.64l2.06 1.65c-.038.32-.068.65-.068.98 0 .33.03.66.069.98l-2.061 1.65a.513.513 0 0 0-.117.64l1.953 3.46c.117.22.38.3.596.22l2.432-1c.507.4 1.054.73 1.65.98l.371 2.65c.03.24.235.42.479.42h3.907a.48.48 0 0 0 .478-.42l.371-2.65a7.464 7.464 0 0 0 1.65-.98l2.432 1c.225.09.48 0 .596-.22l1.954-3.46a.513.513 0 0 0-.118-.64l-2.06-1.65Zm-7.257 2.52c-1.885 0-3.418-1.57-3.418-3.5s1.533-3.5 3.418-3.5c1.885 0 3.418 1.57 3.418 3.5s-1.533 3.5-3.418 3.5Z"/></svg>