<svg width="24" height="24" xmlns="http://www.w3.org/2000/svg"><path fill-rule="evenodd" clip-rule="evenodd" d="m2.186 8.935 3.432-3.432a.616.616 0 0 1 .861 0l3.432 3.432a.609.609 0 0 1-.43 1.045H7.278v7.393c0 .676-.554 1.23-1.23 1.23-.677 0-1.23-.554-1.23-1.23V9.98H2.617a.609.609 0 0 1-.43-1.045ZM15.333 6.28H13.43a.955.955 0 0 0-.953.953c0 .523.429.952.953.952h1.904a.955.955 0 0 0 .953-.952.955.955 0 0 0-.953-.953Zm-1.904 9.524a.955.955 0 0 0-.953.953c0 .523.429.952.953.952h7.619a.955.955 0 0 0 .952-.952.955.955 0 0 0-.952-.953h-7.62Zm4.761-4.762H13.43a.955.955 0 0 0-.953.953c0 .523.429.952.953.952h4.761a.955.955 0 0 0 .953-.952.955.955 0 0 0-.953-.953Z"/></svg>