<svg width="24" height="24" xmlns="http://www.w3.org/2000/svg"><path fill-rule="evenodd" clip-rule="evenodd" d="m9.911 14.995-3.432 3.432a.616.616 0 0 1-.86 0l-3.432-3.432a.609.609 0 0 1 .43-1.045H4.82V6.558c0-.677.553-1.23 1.23-1.23.676 0 1.23.553 1.23 1.23v7.392H9.48c.554 0 .825.664.431 1.045Zm5.422 2.714H13.43a.955.955 0 0 1-.953-.953c0-.523.429-.952.953-.952h1.904c.524 0 .953.429.953.952a.955.955 0 0 1-.953.953ZM13.43 8.185a.955.955 0 0 1-.953-.952c0-.524.429-.952.953-.952h7.618c.524 0 .953.428.953.952a.955.955 0 0 1-.953.952H13.43Zm4.761 4.762H13.43a.955.955 0 0 1-.953-.952c0-.524.429-.952.953-.952h4.761c.524 0 .953.428.953.952a.955.955 0 0 1-.953.952Z"/></svg>