<svg width="24" height="24" xmlns="http://www.w3.org/2000/svg"><path d="m16.513 21-3.782-3.89a4.84 4.84 0 0 1-.731.056c-2.806 0-5.036-2.379-5.036-5.203 0-2.825 2.302-5.13 5.036-5.13 2.806 0 5.036 2.38 5.036 5.13 0 .306-.026.606-.075.897l2.945 3.03 2.008-3.594a.553.553 0 0 0 0-.592l-4.7-8.408A.598.598 0 0 0 16.7 3H7.301a.598.598 0 0 0-.516.296l-4.699 8.408a.553.553 0 0 0 0 .592l4.7 8.408A.598.598 0 0 0 7.3 21h9.212Z"/><path d="M14.325 9.742a3.257 3.257 0 0 0-3.797-.65l1.853 1.9a.53.53 0 0 1 0 .738l-.812.832a.49.49 0 0 1-.72 0l-1.851-1.9c-.597 1.272-.388 2.836.637 3.887a3.261 3.261 0 0 0 3.516.775l4.895 5.021a1.31 1.31 0 0 0 1.893 0 1.392 1.392 0 0 0 0-1.94l-4.874-5.007a3.468 3.468 0 0 0-.74-3.656Z"/></svg>