<svg width="24" height="24" xmlns="http://www.w3.org/2000/svg"><path d="m14.656 10.625-1.312-1.313 5.437-5.437h-2.875a.91.91 0 0 1-.672-.266.91.91 0 0 1-.265-.671.91.91 0 0 1 .265-.672.91.91 0 0 1 .672-.266h5.156a.91.91 0 0 1 .672.266.91.91 0 0 1 .266.671v5.157a.91.91 0 0 1-.266.672.91.91 0 0 1-.672.265.91.91 0 0 1-.671-.265.91.91 0 0 1-.266-.672V5.188l-5.469 5.437ZM12.062 22a.91.91 0 0 1-.671-.266.91.91 0 0 1-.266-.672v-8.625l-7.25-7.25v2.907a.91.91 0 0 1-.266.672.91.91 0 0 1-.671.265.91.91 0 0 1-.672-.265A.91.91 0 0 1 2 8.094V2.938a.91.91 0 0 1 .266-.672A.91.91 0 0 1 2.937 2h5.157a.91.91 0 0 1 .672.266.91.91 0 0 1 .265.671.91.91 0 0 1-.265.672.91.91 0 0 1-.672.266H5.219L13 11.656v9.406a.91.91 0 0 1-.266.672.91.91 0 0 1-.671.266Z"/></svg>