<svg xmlns="http://www.w3.org/2000/svg" width="24" height="24"><path d="m2.398 14.747-.094-.09a.958.958 0 0 1 0-1.4l6.34-6.062a1.072 1.072 0 0 1 1.468 0l3.425 3.27 6.651-7.136c.396-.427 1.093-.437 1.51-.04a.966.966 0 0 1 .041 1.362l-7.463 8.02a1.066 1.066 0 0 1-1.51.039L9.383 9.48l-5.517 5.267a1.072 1.072 0 0 1-1.468 0Zm1.468 5.962 5.517-5.266 3.383 3.23a1.066 1.066 0 0 0 1.51-.04l7.463-8.02a.966.966 0 0 0-.041-1.361c-.417-.398-1.114-.388-1.51.04l-6.651 7.135-3.425-3.27a1.072 1.072 0 0 0-1.468 0l-6.34 6.062a.958.958 0 0 0 0 1.4l.094.09a1.072 1.072 0 0 0 1.468 0Z"/></svg>