<svg width="24" height="24" xmlns="http://www.w3.org/2000/svg"><g clip-path="url(#a)"><path d="M2.768 7.2C1.79 7.2 1 6.485 1 5.6 1 4.715 1.79 4 2.768 4h12.964c.978 0 1.768.715 1.768 1.6 0 .885-.79 1.6-1.768 1.6h-4.714v11.2c0 .885-.79 1.6-1.768 1.6s-1.768-.715-1.768-1.6V7.2H2.768ZM23 18c0 1.105-.923 2-2.063 2-1.139 0-2.062-.895-2.062-2s.923-2 2.063-2c1.139 0 2.062.895 2.062 2ZM15.438 20c1.139 0 2.062-.895 2.062-2s-.923-2-2.063-2c-1.139 0-2.062.895-2.062 2s.923 2 2.063 2Z"/></g><defs><clipPath id="a"><path d="M0 0h24v24H0z"/></clipPath></defs></svg>