<svg width="24" height="24" xmlns="http://www.w3.org/2000/svg"><path d="M2 12a8.972 8.972 0 0 0 2.622 6.345l-1.678 1.699c-.344.348-.1.956.4.956h4.767a.554.554 0 0 0 .556-.563v-4.826c0-.506-.6-.754-.945-.394l-1.544 1.564A6.843 6.843 0 0 1 4.222 12a6.75 6.75 0 0 1 3.811-6.098c.378-.18.634-.528.634-.945v-.213A1.02 1.02 0 0 0 7.2 3.82 8.996 8.996 0 0 0 2 12Zm8.889 5.625h2.222v-2.25H10.89v2.25ZM20.656 3h-4.767a.554.554 0 0 0-.556.563v4.826c0 .506.6.754.945.394l1.544-1.564A6.844 6.844 0 0 1 19.778 12a6.75 6.75 0 0 1-3.811 6.098c-.378.18-.634.528-.634.945v.202a1.02 1.02 0 0 0 1.467.922A8.967 8.967 0 0 0 22 12a8.972 8.972 0 0 0-2.622-6.345l1.678-1.699c.344-.349.1-.956-.4-.956ZM12 13.125c.611 0 1.111-.506 1.111-1.125V7.5c0-.619-.5-1.125-1.111-1.125s-1.111.506-1.111 1.125V12c0 .619.5 1.125 1.111 1.125Z"/></svg>