<svg width="24" height="24" xmlns="http://www.w3.org/2000/svg"><g clip-path="url(#a)"><path d="M12 4.227v-1.74c0-.437-.54-.65-.85-.34l-2.8 2.711c-.2.195-.2.496 0 .69l2.79 2.711c.32.301.86.088.86-.35V6.17c3.31 0 6 2.614 6 5.83a5.52 5.52 0 0 1-.44 2.186c-.15.35-.04.748.23 1.01.51.496 1.37.322 1.64-.33.37-.884.57-1.855.57-2.866 0-4.295-3.58-7.773-8-7.773Zm0 13.603c-3.31 0-6-2.614-6-5.83 0-.768.15-1.516.44-2.186.15-.35.04-.748-.23-1.01-.51-.496-1.37-.321-1.64.33A7.418 7.418 0 0 0 4 12c0 4.295 3.58 7.773 8 7.773v1.74c0 .437.54.65.85.34l2.79-2.711c.2-.194.2-.496 0-.69l-2.79-2.711c-.31-.301-.85-.088-.85.35v1.739Z"/></g><defs><clipPath id="a"><path d="M0 0h24v24H0z"/></clipPath></defs></svg>