<svg width="24" height="24" xmlns="http://www.w3.org/2000/svg"><path d="M10.04 4.055v-.224c0-.803-.85-1.311-1.579-.969-.227.107-.43.236-.645.355L9.562 4.94c.287-.213.478-.531.478-.886ZM22 11.45c0-2.61-1.088-4.96-2.823-6.661l1.806-1.784c.371-.366.108-1.004-.43-1.004h-5.729v5.658c0 .531.646.791 1.017.413l1.662-1.642c1.292 1.3 2.105 3.06 2.105 5.02 0 1.004-.215 1.961-.598 2.823l1.77 1.748A9.265 9.265 0 0 0 22 11.45ZM2.35 2.827a1.166 1.166 0 0 0 0 1.665l1.973 1.95a9.346 9.346 0 0 0-1.459 5.007c0 2.61 1.088 4.961 2.823 6.662L3.88 19.895c-.371.366-.108 1.004.43 1.004h5.131c.335 0 .598-.26.598-.591v-5.067a.593.593 0 0 0-1.017-.414L7.361 16.47c-1.292-1.3-2.105-3.059-2.105-5.02 0-1.18.311-2.28.825-3.26l9.652 9.532c-.012.024-.012.024-.012.047-.514.142-.897.567-.897 1.075v.213c0 .803.85 1.311 1.579.968.37-.165.73-.366 1.076-.578l2.237 2.208c.466.461 1.22.461 1.686 0a1.166 1.166 0 0 0 0-1.665L4.036 2.827a1.202 1.202 0 0 0-1.686 0Z"/></svg>