<svg width="24" height="24" xmlns="http://www.w3.org/2000/svg"><path d="M19.778 6.444H8.667c-1.223 0-2.223 1-2.223 2.223v11.11C6.444 21 7.444 22 8.667 22h11.11C21 22 22 21 22 19.778V8.667c0-1.223-1-2.223-2.222-2.223Zm0 3.334c0 .61-.5 1.11-1.111 1.11h-8.89c-.61 0-1.11-.5-1.11-1.11 0-.611.5-1.111 1.11-1.111h8.89c.61 0 1.11.5 1.11 1.11Zm-6.667 5.555v-2.222h2.222v2.222h-2.222Zm2.222 2.223v2.222h-2.222v-2.222h2.222Zm-4.444-2.223H8.667v-2.222h2.222v2.222Zm6.667-2.222h2.222v2.222h-2.222v-2.222Zm-8.89 4.445h2.223v2.222H8.667v-2.222Zm8.89 2.222v-2.222h2.222v2.222h-2.222ZM5.333 17.556h-1.11C3 17.556 2 16.556 2 15.333V4.223C2 3 3 2 4.222 2h11.111c1.223 0 2.223 1 2.223 2.222v1.111h-2.223v-1.11H4.223v11.11h1.11v2.223Z"/></svg>