<svg width="24" height="24" xmlns="http://www.w3.org/2000/svg"><path d="M21.28 5.888 11.284 15.89a.995.995 0 0 1-1.41 0L7.046 13.06a.997.997 0 1 1 1.41-1.41l2.118 2.12 9.286-9.293a.995.995 0 0 1 1.41 0c.4.39.4 1.02.01 1.41Zm-5.518-3.151c-1.69-.69-3.609-.93-5.608-.57-4.068.73-7.317 4.01-8.006 8.082-1.14 6.752 4.478 12.534 11.185 11.664 3.958-.51 7.277-3.461 8.316-7.313.4-1.47.44-2.89.21-4.22-.13-.801-1.12-1.111-1.699-.541-.23.23-.33.57-.27.89.22 1.33.12 2.751-.52 4.262-1.159 2.71-3.678 4.701-6.607 4.971-5.098.47-9.326-3.851-8.696-8.983.43-3.54 3.279-6.422 6.807-6.912 1.73-.24 3.369.09 4.768.81a1.004 1.004 0 0 0 .93-1.78c-.27-.12-.54-.25-.81-.36Z"/></svg>