<svg width="24" height="24" xmlns="http://www.w3.org/2000/svg"><path d="M18.563 2.613c-2.28-1.102-5.115-.72-7.009 1.159a6.045 6.045 0 0 0-1.366 6.531l-7.46 7.41a2.428 2.428 0 0 0 0 3.467c.96.962 2.524.962 3.495 0l7.498-7.438c2.176.813 4.738.355 6.49-1.383a6.04 6.04 0 0 0 1.178-6.943l-3.42 3.392a.927.927 0 0 1-1.328 0l-1.498-1.485a.925.925 0 0 1 0-1.318l3.42-3.392ZM17.636 21.777c-.386.149-.856.223-1.409.223-.528 0-.98-.08-1.358-.241-.377-.161-.655-.362-.835-.604-.18-.24-.27-.483-.27-.726 0-.16.058-.298.173-.413a.593.593 0 0 1 .436-.171c.155 0 .273.037.356.112.083.075.162.18.237.316.151.261.332.456.542.585.21.129.496.193.86.193.294 0 .535-.065.724-.196.189-.13.283-.28.283-.448 0-.257-.098-.445-.294-.563-.196-.117-.518-.23-.967-.337a8.048 8.048 0 0 1-1.237-.394 2.036 2.036 0 0 1-.762-.545 1.243 1.243 0 0 1-.286-.83c0-.294.088-.57.264-.832.176-.26.436-.469.779-.624.343-.156.757-.234 1.242-.234.38 0 .723.04 1.026.118.304.079.557.184.76.317.203.132.358.278.463.44.107.16.16.317.16.471a.544.544 0 0 1-.17.413c-.113.107-.274.16-.483.16a.593.593 0 0 1-.385-.128 2.526 2.526 0 0 1-.363-.386 1.328 1.328 0 0 0-.394-.343c-.15-.086-.356-.129-.614-.129-.266 0-.487.056-.663.17-.176.112-.264.252-.264.42 0 .154.065.28.194.378.13.098.304.18.523.244.219.064.52.143.905.236.456.11.829.243 1.118.397.29.153.508.335.657.544.15.21.224.448.224.716 0 .404-.099.75-.296 1.037-.198.288-.49.506-.876.654Z"/></svg>