<svg width="24" height="24" xmlns="http://www.w3.org/2000/svg"><path fill-rule="evenodd" clip-rule="evenodd" d="M2.428 7.75v8.5c0 .185.152.333.342.333h8.555V7.417H2.77a.345.345 0 0 0-.242.097.327.327 0 0 0-.1.235v.001ZM11.753 7v10H2.77a.759.759 0 0 1-.77-.75v-8.5c0-.2.08-.39.225-.53.144-.142.34-.22.545-.22h8.983ZM12.5 16.773V7.227h8.75c.142 0 .279.055.38.153.1.098.157.231.156.37v8.5c0 .29-.238.523-.537.523H12.5Zm7.594-5.649a.382.382 0 0 0 .386-.374v-.5a.382.382 0 0 0-.385-.376h-2.053v-.5A.382.382 0 0 0 17.656 9h-.513a.38.38 0 0 0-.384.374v.5h-2.054a.382.382 0 0 0-.385.376v.5a.381.381 0 0 0 .384.374h3.668c-.2.448-.53.907-.963 1.35a6.037 6.037 0 0 1-.558-.652.395.395 0 0 0-.513-.107l-.235.135-.208.122a.366.366 0 0 0-.119.535 7.3 7.3 0 0 0 .674.802 8.847 8.847 0 0 1-.837.563.37.37 0 0 0-.135.506l.253.434a.385.385 0 0 0 .24.178c.1.026.208.01.297-.043.407-.244.785-.506 1.135-.778.361.282.74.542 1.135.778.09.053.197.069.298.043a.385.385 0 0 0 .239-.178l.252-.434a.368.368 0 0 0-.13-.505 10.267 10.267 0 0 1-.838-.564c.674-.703 1.148-1.446 1.37-2.185h.365Z"/><path fill-rule="evenodd" clip-rule="evenodd" d="M21.25 7.019c.198 0 .39.076.53.213a.72.72 0 0 1 .22.518v8.5a.739.739 0 0 1-.75.73h-8.964V7.02h8.963Zm.228.508a.326.326 0 0 0-.228-.092h-8.536v9.13h8.536c.18 0 .322-.14.322-.315v-8.5a.31.31 0 0 0-.094-.223Zm-4.335 1.681a.17.17 0 0 0-.17.166v.709h-2.268a.17.17 0 0 0-.171.167v.5a.17.17 0 0 0 .171.166h3.993l-.13.291c-.212.476-.559.955-1.004 1.41l-.154.16-.155-.159a6.239 6.239 0 0 1-.578-.675.178.178 0 0 0-.23-.048l-.234.134-.207.121a.167.167 0 0 0-.08.108c-.01.045 0 .091.026.129.199.274.417.535.653.779l.161.166-.184.14a9.085 9.085 0 0 1-.858.577.164.164 0 0 0-.06.226l.253.434c.023.04.062.068.106.08a.177.177 0 0 0 .133-.02c.4-.24.77-.496 1.113-.763l.134-.104.133.104c.355.277.727.532 1.114.764a.175.175 0 0 0 .24-.06l.25-.434a.163.163 0 0 0-.055-.226 10.549 10.549 0 0 1-.855-.575l-.189-.14.162-.168c.658-.686 1.11-1.402 1.321-2.101l.045-.15h.525a.17.17 0 0 0 .172-.167v-.5a.17.17 0 0 0-.17-.166h-2.268v-.709a.17.17 0 0 0-.172-.166h-.513Zm-.598.166c0-.32.268-.583.598-.583h.513c.33 0 .6.263.6.583v.292h1.84c.328 0 .598.263.598.584v.5a.593.593 0 0 1-.6.583h-.208c-.229.665-.646 1.323-1.21 1.946.206.147.417.287.632.416.28.166.363.513.206.785l-.253.435a.598.598 0 0 1-.372.277.614.614 0 0 1-.462-.067 11.405 11.405 0 0 1-1.024-.69c-.319.24-.66.471-1.023.69a.614.614 0 0 1-.463.067.598.598 0 0 1-.372-.276l-.252-.434a.575.575 0 0 1 .208-.788c.223-.133.434-.27.633-.413a7.505 7.505 0 0 1-.532-.655.57.57 0 0 1-.094-.456.583.583 0 0 1 .278-.377l.209-.123.234-.134a.612.612 0 0 1 .796.165c.114.155.242.31.384.466.253-.279.461-.56.619-.834h-3.324a.593.593 0 0 1-.598-.582v-.501c0-.322.27-.584.6-.584h1.839v-.292ZM6.064 9.421 4.27 14.568v-.001a.36.36 0 0 0 .052.33.38.38 0 0 0 .305.154h.715a.377.377 0 0 0 .36-.265l.282-.967h1.882l.294.97a.374.374 0 0 0 .36.263h.716a.38.38 0 0 0 .306-.153c.07-.096.09-.22.05-.331L7.793 9.42a.38.38 0 0 0-.356-.247H6.42a.373.373 0 0 0-.356.247Zm.873 1.095s.134.642.243 1.012v-.001l.341 1.142h-1.19l.347-1.142c.109-.369.243-1.01.243-1.01h.016Z"/></svg>