<svg width="24" height="24" xmlns="http://www.w3.org/2000/svg"><path d="M6.63 10.344s.137.659.25 1.038v-.001l.35 1.172H6.006l.356-1.172c.112-.378.25-1.037.25-1.037h.016Z"/><path fill-rule="evenodd" clip-rule="evenodd" d="M2 7.75v8.5c0 .416.343.75.77.75h8.983V7H2.77c-.204 0-.4.078-.545.22A.738.738 0 0 0 2 7.75Zm1.89 6.753 1.843-5.284a.383.383 0 0 1 .366-.254h1.043a.39.39 0 0 1 .366.254l1.846 5.284c.04.115.02.241-.052.34a.39.39 0 0 1-.314.157h-.735a.384.384 0 0 1-.37-.27l-.301-.995H5.65l-.29.992A.387.387 0 0 1 4.99 15h-.735a.39.39 0 0 1-.313-.157.37.37 0 0 1-.052-.34H3.89ZM21.25 7.019c.198 0 .39.076.53.214a.72.72 0 0 1 .22.517v8.5a.739.739 0 0 1-.75.731h-8.964V7.02h8.963Zm0 0s-.001 0 0 0Zm.228.508a.325.325 0 0 0-.228-.091h-8.536v9.128h8.536c.18 0 .322-.139.322-.314v-8.5a.31.31 0 0 0-.094-.223Z"/><path d="M20.479 10.75a.381.381 0 0 1-.386.374h-.364c-.223.739-.697 1.482-1.37 2.185.27.2.548.39.837.564a.368.368 0 0 1 .13.505l-.252.435a.386.386 0 0 1-.239.177.396.396 0 0 1-.297-.043 11.17 11.17 0 0 1-1.136-.778c-.35.272-.728.534-1.135.778a.396.396 0 0 1-.298.043.386.386 0 0 1-.239-.177l-.253-.435a.369.369 0 0 1 .135-.506c.298-.178.578-.366.837-.563a7.302 7.302 0 0 1-.673-.803.366.366 0 0 1 .119-.534l.208-.122.234-.135a.395.395 0 0 1 .513.107c.16.218.346.437.558.653.433-.444.764-.903.963-1.35h-3.667a.381.381 0 0 1-.385-.375v-.5c0-.206.174-.376.386-.376h2.053v-.5A.38.38 0 0 1 17.142 9h.514c.212 0 .385.169.385.374v.5h2.053c.211 0 .385.17.385.376v.5Z"/></svg>