<svg width="24" height="24" xmlns="http://www.w3.org/2000/svg"><path fill-rule="evenodd" clip-rule="evenodd" d="M14.702 3.939a.443.443 0 0 1 .376-.222c.257 0 .458.212.458.482l-2.238 12.437-.009.029c-.174.879-.917 1.535-1.798 1.535-1.018 0-1.844-.869-1.844-1.94 0-.339.092-.648.239-.928l4.752-11.249.064-.144ZM4.116 8.689a1.247 1.247 0 0 1-1.733-.087c-.542-.57-.505-1.516.082-2.027 3.311-2.849 7.54-3.892 11.53-3.139l-1.091 2.588C9.84 5.62 6.648 6.507 4.116 8.69Zm16.41-2.114c.597.511.633 1.458.092 2.027-.468.493-1.21.522-1.743.078a11.517 11.517 0 0 0-2.907-1.825l.486-2.723c1.449.56 2.825 1.37 4.072 2.443ZM15 17.7a3.501 3.501 0 0 1 7 0c0 1.932-1.568 3.5-3.5 3.5a3.501 3.501 0 0 1-3.5-3.5Zm.7 0a2.8 2.8 0 0 0 2.8 2.8c.647 0 1.242-.22 1.715-.592l-3.924-3.924a2.766 2.766 0 0 0-.591 1.716Zm1.085-2.21 3.924 3.925A2.766 2.766 0 0 0 21.3 17.7a2.8 2.8 0 0 0-2.8-2.8c-.648 0-1.243.22-1.715.59Z"/></svg>