<svg width="24" height="24" xmlns="http://www.w3.org/2000/svg"><path d="M10.887 8.386v4.09c0 .39.211.756.544.956l3.468 2.056c.4.233.911.1 1.144-.29a.832.832 0 0 0-.288-1.144l-3.19-1.9V8.375a.855.855 0 0 0-.845-.822.84.84 0 0 0-.833.833ZM22 9.22V3.341c0-.5-.6-.744-.945-.389L19.077 4.93a10.012 10.012 0 0 0-8.012-2.89c-4.657.423-8.49 4.168-9.002 8.825C1.396 16.888 6.097 22 11.998 22c5.101 0 9.313-3.823 9.924-8.757a1.116 1.116 0 0 0-1.111-1.245c-.556 0-1.023.411-1.09.956-.477 3.878-3.822 6.879-7.834 6.823-4.123-.055-7.601-3.534-7.668-7.668C4.152 7.775 7.675 4.22 12 4.22c2.144 0 4.089.878 5.5 2.278L15.177 8.82a.557.557 0 0 0 .389.956h5.878A.55.55 0 0 0 22 9.22Z"/></svg>