<svg width="24" height="24" xmlns="http://www.w3.org/2000/svg"><path d="M10.235 20h3.53c.647 0 1.176-.554 1.176-1.23v-4.924c0-.677-.53-1.23-1.176-1.23h-3.53c-.647 0-1.176.553-1.176 1.23v4.923c0 .677.53 1.231 1.176 1.231Zm-7.059 0h3.53c.647 0 1.176-.554 1.176-1.23V5.23c0-.676-.53-1.23-1.176-1.23h-3.53C2.53 4 2 4.554 2 5.23v13.54c0 .676.53 1.23 1.176 1.23Zm14.118 0h3.53C21.47 20 22 19.446 22 18.77v-4.924c0-.677-.53-1.23-1.177-1.23h-3.529c-.647 0-1.176.553-1.176 1.23v4.923c0 .677.53 1.231 1.176 1.231ZM9.06 5.23v4.924c0 .677.53 1.23 1.176 1.23h10.588c.648 0 1.177-.553 1.177-1.23V5.23C22 4.554 21.47 4 20.823 4H10.236c-.647 0-1.176.554-1.176 1.23Z"/></svg>