<svg width="24" height="24" xmlns="http://www.w3.org/2000/svg"><path d="M12 7.172c2.51 0 4.546 1.955 4.546 4.365 0 .445-.091.873-.219 1.275l2.782 2.672A10.317 10.317 0 0 0 22 11.528c-1.573-3.824-5.454-6.54-10-6.54a11.18 11.18 0 0 0-3.31.498l1.974 1.895A4.85 4.85 0 0 1 12 7.171ZM3.555 4.255a.845.845 0 0 0 0 1.231l1.79 1.72C3.873 8.334 2.7 9.818 2 11.538c1.573 3.833 5.455 6.549 10 6.549 1.382 0 2.7-.262 3.918-.716l2.473 2.375c.355.34.927.34 1.282 0a.845.845 0 0 0 0-1.232L4.845 4.256a.943.943 0 0 0-1.29 0ZM12 15.903c-2.51 0-4.545-1.956-4.545-4.366 0-.672.163-1.31.445-1.868l1.427 1.37a2.883 2.883 0 0 0-.054.498c0 1.45 1.218 2.62 2.727 2.62.182 0 .345-.027.518-.062l1.427 1.371a4.524 4.524 0 0 1-1.945.437Zm2.7-4.654c-.136-1.222-1.136-2.174-2.4-2.305l2.4 2.305Z"/></svg>