<svg width="24" height="24" xmlns="http://www.w3.org/2000/svg"><path d="M12.58 14.59v6.351c0 .583.477 1.059 1.059 1.059h6.348c.582 0 1.058-.476 1.058-1.059V14.59c0-.583-.476-1.059-1.058-1.059h-6.348c-.582 0-1.058.476-1.058 1.059ZM3.059 22h6.348c.582 0 1.058-.476 1.058-1.059V14.59c0-.583-.476-1.059-1.058-1.059H3.058c-.582 0-1.058.476-1.058 1.059v6.351C2 21.524 2.476 22 3.058 22ZM2 4.003v6.352c0 .582.476 1.059 1.058 1.059h6.348c.582 0 1.058-.477 1.058-1.059V4.003c0-.582-.476-1.058-1.058-1.058H3.058C2.476 2.945 2 3.42 2 4.003ZM15.702 2.31l-4.497 4.488a1.055 1.055 0 0 0 0 1.493l4.497 4.499c.412.413 1.08.413 1.492 0l4.497-4.5a1.055 1.055 0 0 0 0-1.492L17.203 2.31a1.066 1.066 0 0 0-1.502 0Z"/></svg>