<svg xmlns="http://www.w3.org/2000/svg" width="24" height="24"><path d="m4.144 12.4 1.008 5.433H6.67l.508-2.466c.045-.211.084-.423.117-.634.039-.216.075-.425.108-.625h.034c.027.2.058.409.091.625.04.211.08.423.125.634l.534 2.466h1.541l.967-5.433H9.519l-.375 2.542-.117.85c-.033.283-.07.572-.108.866h-.033a256.99 256.99 0 0 0-.167-.875c-.05-.289-.103-.57-.158-.841L7.977 12.4H6.936l-.584 2.542-.166.858c-.05.283-.103.57-.159.858h-.033c-.033-.289-.07-.575-.108-.858a51.918 51.918 0 0 1-.109-.858L5.402 12.4H4.144Z"/><path fill-rule="evenodd" d="M5.344 4c0-1.1.927-2 2.073-2h7.468c.553 0 1.084.21 1.47.59l5.03 4.83c.396.37.615.88.615 1.41V20c0 1.1-.938 2-2.083 2H7.407c-1.028 0-1.88-.724-2.045-1.667H3.667c-.92 0-1.667-.746-1.667-1.666v-7.5c0-.92.746-1.667 1.667-1.667H5.34L5.344 4Zm-1.677 6.333h7.5c.46 0 .833.373.833.834v7.5c0 .46-.373.833-.833.833h-7.5a.833.833 0 0 1-.834-.833v-7.5c0-.46.373-.834.834-.834ZM14.708 3.5V8c0 .55.47 1 1.042 1h4.688l-5.73-5.5Z" clip-rule="evenodd"/></svg>