<svg xmlns="http://www.w3.org/2000/svg" width="24" height="24"><path d="M3.177 5.353h16.47a1.18 1.18 0 0 0 1.177-1.176A1.18 1.18 0 0 0 19.648 3H3.177A1.18 1.18 0 0 0 2 4.177c0 .647.53 1.176 1.177 1.176Zm13.918 4.706H3.177A1.18 1.18 0 0 0 2 11.236c0 .647.53 1.176 1.177 1.176h14.27c1.177 0 2.271.788 2.46 1.953a2.357 2.357 0 0 1-2.318 2.753h-2.647v-.93a.582.582 0 0 0-1-.411l-2.106 2.106a.583.583 0 0 0 0 .835l2.106 2.106a.584.584 0 0 0 1-.412v-.94h2.353a4.704 4.704 0 0 0 4.682-5.166c-.235-2.447-2.423-4.247-4.882-4.247Zm-9.212 7.06H3.177A1.18 1.18 0 0 0 2 18.294c0 .647.53 1.176 1.177 1.176h4.706a1.18 1.18 0 0 0 1.176-1.176 1.18 1.18 0 0 0-1.176-1.177Z"/></svg>