<svg xmlns="http://www.w3.org/2000/svg" width="24" height="24"><path d="M16.657 14.898h-.927l-.328-.317a7.621 7.621 0 0 0 1.735-6.26c-.55-3.26-3.271-5.863-6.554-6.262a7.627 7.627 0 0 0-8.524 8.524c.399 3.283 3.002 6.003 6.261 6.554a7.621 7.621 0 0 0 6.261-1.735l.317.328v.927l4.994 4.983c.481.48 1.255.48 1.736 0l.012-.012c.48-.481.48-1.255 0-1.736l-4.983-4.994Zm-7.035 0a5.269 5.269 0 0 1-5.276-5.276 5.269 5.269 0 0 1 5.276-5.276 5.269 5.269 0 0 1 5.276 5.276 5.269 5.269 0 0 1-5.276 5.276ZM7.277 9.036h4.69a.58.58 0 0 1 .586.586.58.58 0 0 1-.586.586h-4.69a.58.58 0 0 1-.586-.586.58.58 0 0 1 .586-.586Z"/></svg>