<svg xmlns="http://www.w3.org/2000/svg" width="24" height="24"><path d="M16.656 14.898h-.926l-.329-.317a7.62 7.62 0 0 0 1.736-6.26c-.551-3.26-3.272-5.863-6.555-6.262-4.96-.61-9.123 3.565-8.525 8.524.399 3.283 3.002 6.003 6.262 6.554a7.623 7.623 0 0 0 6.261-1.735l.317.328v.927l4.995 4.983c.481.48 1.255.48 1.736 0l.011-.012c.481-.481.481-1.255 0-1.736l-4.983-4.994Zm-7.035 0a5.27 5.27 0 0 1-5.277-5.276A5.27 5.27 0 0 1 9.62 4.346a5.27 5.27 0 0 1 5.277 5.276 5.27 5.27 0 0 1-5.277 5.276Zm0-8.207a.58.58 0 0 0-.587.586v1.759H7.275a.58.58 0 0 0-.586.586.58.58 0 0 0 .586.586h1.76v1.759a.58.58 0 0 0 .585.586.58.58 0 0 0 .587-.586v-1.759h1.759a.58.58 0 0 0 .586-.586.58.58 0 0 0-.586-.586h-1.76v-1.76a.58.58 0 0 0-.585-.585Z"/></svg>